<svg width="185" height="92" viewBox="0 0 185 92" fill="none" xmlns="http://www.w3.org/2000/svg">
  <path d="M63.5113 2.52832H16.5517C16.2639 2.52832 16.0141 2.72672 15.949 3.00702L1.92594 63.3672C1.86809 63.6162 1.96932 63.8751 2.18069 64.0189L40.1426 89.833C40.3569 89.9787 40.6392 89.9754 40.8501 89.8248L76.9808 64.0171C77.182 63.8735 77.2783 63.6239 77.2258 63.3823L64.1159 3.01572C64.0541 2.73125 63.8024 2.52832 63.5113 2.52832Z" fill="white" stroke="#145BA1" strokeWidth="3.09354" />
  <path d="M19.1538 19.2334H59.9885" stroke="#389BDF" strokeWidth="0.80432" stroke-linecap="round" />
  <path d="M39.5711 30.9888H14.2041L7.49126 60.2812C7.43506 60.5264 7.53295 60.7812 7.73887 60.9258L39.5711 83.2696V30.9888Z" fill="#28A2F7" />
  <path d="M39.5711 30.9888H64.9381L71.651 60.2812C71.7072 60.5264 71.6093 60.7812 71.4033 60.9258L39.5711 83.2696V30.9888Z" fill="#1968B7" />
  <path d="M32.8629 51.6479V54.9832H43.2235H53.5841V51.6479V48.3126H43.2235H32.8629V51.6479Z" fill="white" />
  <path d="M26.8594 50.1293C26.8168 50.1861 26.462 51.1086 26.0646 52.1872L25.3408 54.16V56.1044C25.3408 57.4243 25.3976 58.1056 25.5111 58.2191C25.6105 58.3184 25.9227 58.3894 26.2208 58.3894C26.6465 58.3894 26.7601 58.3326 26.7601 58.1339C26.7601 57.7507 27.5407 56.7289 28.0232 56.4734C28.9315 56.0051 29.996 56.2889 30.6772 57.183L31.0462 57.6798H32.2668H33.4732L34.1402 57.0553C34.5802 56.6437 35.006 56.3883 35.3466 56.3173C36.4678 56.1186 37.5748 56.8282 37.7735 57.8927C37.8445 58.2901 37.9296 58.3894 38.1993 58.3894C38.6676 58.3894 38.6393 58.063 38.0999 56.9985C37.4045 55.5935 37.2768 55.5509 33.8706 55.5509H31.0179V52.7833V50.0158H28.9741C27.8387 50.0158 26.8878 50.0584 26.8594 50.1293ZM29.4567 52.1447V53.4078L29.0025 53.4788C27.9948 53.6491 25.9937 53.8336 25.9369 53.7768C25.8801 53.72 26.5614 51.5344 26.7885 51.1086C26.8878 50.9099 27.1149 50.8673 28.1793 50.8673H29.4567V52.1447Z" fill="white" />
  <path d="M45.693 55.8205C45.1536 56.147 44.6995 56.7573 44.4298 57.552C44.146 58.3326 44.1602 58.3894 44.5717 58.3894C44.8556 58.3894 44.9408 58.2901 45.0543 57.8501C45.2246 57.254 45.7781 56.5869 46.3032 56.3883C46.8426 56.1896 47.7509 56.2321 48.205 56.5018C48.4321 56.6437 48.6166 56.7998 48.6166 56.8566C48.6166 56.9134 48.7728 56.9701 48.9714 56.9701C49.1701 56.9701 49.3263 56.9134 49.3263 56.8282C49.3263 56.516 50.2204 56.2321 50.9868 56.2889C51.6397 56.3457 51.8383 56.4308 52.2641 56.8566C52.5338 57.1405 52.8034 57.5662 52.8602 57.8359C52.9312 58.2333 53.0305 58.3326 53.3428 58.361C53.7118 58.4036 53.726 58.3752 53.6408 58.0062C53.4705 57.2682 52.8034 56.2037 52.3209 55.8773C51.8525 55.5651 51.7248 55.5509 48.9856 55.5509C46.431 55.5509 46.0904 55.5793 45.693 55.8205Z" fill="white" />
  <path d="M28.2361 56.8282C27.8387 56.9843 27.3703 57.5946 27.2568 58.0913C27.1432 58.6306 27.4839 59.4396 27.9806 59.766C28.2077 59.9079 28.6335 60.0215 28.9883 60.0215C30.6062 60.0215 31.1739 57.6371 29.7405 56.8991C29.2863 56.672 28.7044 56.6295 28.2361 56.8282Z" fill="white" />
  <path d="M34.8214 56.9276C33.9131 57.5095 33.7712 58.8011 34.5376 59.5674C35.4033 60.419 36.7942 60.0926 37.2342 58.9288C37.4896 58.2901 37.3761 57.8076 36.8652 57.2399C36.3684 56.6864 35.4175 56.5444 34.8214 56.9276Z" fill="white" />
  <path d="M46.1187 56.9417C44.7846 57.7933 45.3807 60.0215 46.9561 60.0215C47.7225 60.0215 48.2902 59.6525 48.5741 58.9854C49.1701 57.5378 47.4528 56.1043 46.1187 56.9417Z" fill="white" />
  <path d="M49.9365 56.9702C49.3688 57.3108 49.1843 57.6514 49.1843 58.3469C49.1843 59.5532 50.2346 60.3338 51.37 59.9506C52.6331 59.539 52.846 57.6656 51.7106 56.9702C51.1145 56.6154 50.5184 56.6154 49.9365 56.9702Z" fill="white" />
  <rect width="33.4102" height="3.09354" transform="translate(22.866 23.5645)" fill="#28A2F7" />
  <rect width="42.6908" height="3.09354" transform="translate(18.535 11.1902)" fill="#145BA1" />
  <path d="M90.8166 29.302V15.2715H103.775V18.3114H93.8761V20.7668H101.846V23.8067H93.8761V29.302H90.8166ZM104.373 29.302V15.2715H107.354V29.302H104.373ZM119.921 29.302L115.848 24.4498H119.804L123.039 28.2692V29.302H119.921ZM109.028 29.302V15.291H120.155C120.687 15.291 121.168 15.4209 121.597 15.6807C122.038 15.9405 122.389 16.2913 122.649 16.733C122.922 17.1747 123.058 17.6554 123.058 18.175V21.7996C123.058 22.3192 122.922 22.7999 122.649 23.2416C122.389 23.6833 122.038 24.0341 121.597 24.2939C121.168 24.5537 120.687 24.6836 120.155 24.6836L112.048 24.7031V29.302H109.028ZM112.048 21.6437H119.999V18.3114H112.048V21.6437ZM127.953 29.302C127.433 29.302 126.953 29.1721 126.511 28.9123C126.069 28.6524 125.719 28.3017 125.459 27.86C125.199 27.4183 125.069 26.9376 125.069 26.4179V25.1123H128.089V26.2621H136.04V23.8067H127.953C127.433 23.8067 126.953 23.6768 126.511 23.417C126.069 23.1571 125.719 22.8129 125.459 22.3842C125.199 21.9425 125.069 21.4553 125.069 20.9227V18.1555C125.069 17.6229 125.199 17.1422 125.459 16.7135C125.719 16.2718 126.069 15.921 126.511 15.6612C126.953 15.4014 127.433 15.2715 127.953 15.2715H136.216C136.735 15.2715 137.209 15.4014 137.638 15.6612C138.08 15.921 138.431 16.2718 138.69 16.7135C138.963 17.1422 139.1 17.6229 139.1 18.1555V19.4611H136.04V18.3114H128.089V20.7668H136.216C136.735 20.7668 137.209 20.8967 137.638 21.1565C138.08 21.4163 138.431 21.7671 138.69 22.2088C138.963 22.6375 139.1 23.1182 139.1 23.6508V26.4179C139.1 26.9376 138.963 27.4183 138.69 27.86C138.431 28.3017 138.08 28.6524 137.638 28.9123C137.209 29.1721 136.735 29.302 136.216 29.302H127.953ZM146.039 29.302V18.3114H140.544V15.2715H154.575V18.3114H149.079V29.302H146.039ZM95.5714 53.302V42.3114H90.0761V39.2715H104.107V42.3114H98.6114V53.302H95.5714ZM116.457 53.302L112.384 48.4498H116.34L119.575 52.2692V53.302H116.457ZM105.564 53.302V39.291H116.691C117.224 39.291 117.704 39.4209 118.133 39.6807C118.575 39.9405 118.926 40.2913 119.185 40.733C119.458 41.1747 119.595 41.6554 119.595 42.175V45.7996C119.595 46.3192 119.458 46.7999 119.185 47.2416C118.926 47.6833 118.575 48.0341 118.133 48.2939C117.704 48.5537 117.224 48.6836 116.691 48.6836L108.585 48.7031V53.302H105.564ZM108.585 45.6437H116.535V42.3114H108.585V45.6437ZM124.49 53.302C123.97 53.302 123.489 53.1721 123.048 52.9123C122.606 52.6524 122.255 52.3017 121.995 51.86C121.735 51.4183 121.606 50.9376 121.606 50.4179V39.2715H124.626V50.2621H132.577V39.2715H135.636V50.4179C135.636 50.9376 135.5 51.4183 135.227 51.86C134.967 52.3017 134.616 52.6524 134.175 52.9123C133.746 53.1721 133.272 53.302 132.752 53.302H124.49ZM140.666 53.302C140.133 53.302 139.646 53.1721 139.205 52.9123C138.776 52.6524 138.432 52.3082 138.172 51.8795C137.912 51.4378 137.782 50.9506 137.782 50.4179V42.1555C137.782 41.6229 137.912 41.1422 138.172 40.7135C138.432 40.2718 138.776 39.921 139.205 39.6612C139.646 39.4014 140.133 39.2715 140.666 39.2715H151.774V42.3114H141.446C141.238 42.3114 141.075 42.3634 140.958 42.4673C140.854 42.5712 140.803 42.7336 140.803 42.9545V49.619C140.803 49.8268 140.854 49.9892 140.958 50.1062C141.075 50.2101 141.238 50.2621 141.446 50.2621H151.774V53.302H140.666ZM153.825 53.302V39.2715H156.865V44.7668H159.613L164.211 39.2715H167.368V40.3238L162.36 46.2867L167.368 52.2497V53.302H164.211L159.613 47.8067H156.865V53.302H153.825ZM172.179 53.302C171.659 53.302 171.179 53.1721 170.737 52.9123C170.295 52.6524 169.945 52.3017 169.685 51.86C169.425 51.4183 169.295 50.9376 169.295 50.4179V49.1123H172.316V50.2621H180.266V47.8067H172.179C171.659 47.8067 171.179 47.6768 170.737 47.417C170.295 47.1571 169.945 46.8129 169.685 46.3842C169.425 45.9425 169.295 45.4553 169.295 44.9227V42.1555C169.295 41.6229 169.425 41.1422 169.685 40.7135C169.945 40.2718 170.295 39.921 170.737 39.6612C171.179 39.4014 171.659 39.2715 172.179 39.2715H180.442C180.961 39.2715 181.435 39.4014 181.864 39.6612C182.306 39.921 182.657 40.2718 182.916 40.7135C183.189 41.1422 183.326 41.6229 183.326 42.1555V43.4611H180.266V42.3114H172.316V44.7668H180.442C180.961 44.7668 181.435 44.8967 181.864 45.1565C182.306 45.4163 182.657 45.7671 182.916 46.2088C183.189 46.6375 183.326 47.1182 183.326 47.6508V50.4179C183.326 50.9376 183.189 51.4183 182.916 51.86C182.657 52.3017 182.306 52.6524 181.864 52.9123C181.435 53.1721 180.961 53.302 180.442 53.302H172.179ZM93.6227 77.302C93.1031 77.302 92.6224 77.1721 92.1807 76.9123C91.739 76.6524 91.3883 76.3017 91.1284 75.86C90.8686 75.4183 90.7387 74.9376 90.7387 74.4179V73.1123H93.7592V74.2621H101.71V71.8067H93.6227C93.1031 71.8067 92.6224 71.6768 92.1807 71.417C91.739 71.1571 91.3883 70.8129 91.1284 70.3842C90.8686 69.9425 90.7387 69.4553 90.7387 68.9227V66.1555C90.7387 65.6229 90.8686 65.1422 91.1284 64.7135C91.3883 64.2718 91.739 63.921 92.1807 63.6612C92.6224 63.4014 93.1031 63.2715 93.6227 63.2715H101.885C102.405 63.2715 102.879 63.4014 103.308 63.6612C103.749 63.921 104.1 64.2718 104.36 64.7135C104.633 65.1422 104.769 65.6229 104.769 66.1555V67.4611H101.71V66.3114H93.7592V68.7668H101.885C102.405 68.7668 102.879 68.8967 103.308 69.1565C103.749 69.4163 104.1 69.7671 104.36 70.2088C104.633 70.6375 104.769 71.1182 104.769 71.6508V74.4179C104.769 74.9376 104.633 75.4183 104.36 75.86C104.1 76.3017 103.749 76.6524 103.308 76.9123C102.879 77.1721 102.405 77.302 101.885 77.302H93.6227ZM106.954 77.302V66.1555C106.954 65.6229 107.084 65.1422 107.344 64.7135C107.604 64.2718 107.955 63.921 108.396 63.6612C108.838 63.4014 109.319 63.2715 109.838 63.2715H118.081C118.614 63.2715 119.094 63.4014 119.523 63.6612C119.965 63.921 120.316 64.2718 120.575 64.7135C120.848 65.1422 120.985 65.6229 120.985 66.1555V77.302H117.925V72.7811H109.975V77.302H106.954ZM109.975 69.7411H117.925V66.3114H109.975V69.7411ZM134.098 77.302L130.025 72.4498H133.981L137.216 76.2692V77.302H134.098ZM123.205 77.302V63.291H134.332C134.865 63.291 135.345 63.4209 135.774 63.6807C136.216 63.9405 136.566 64.2913 136.826 64.733C137.099 65.1747 137.236 65.6554 137.236 66.175V69.7996C137.236 70.3192 137.099 70.7999 136.826 71.2416C136.566 71.6833 136.216 72.0341 135.774 72.2939C135.345 72.5537 134.865 72.6836 134.332 72.6836L126.225 72.7031V77.302H123.205ZM126.225 69.6437H134.176V66.3114H126.225V69.6437ZM139.305 77.302V63.252H142.325V74.2621H153.335V77.302H139.305Z" fill="#145BA1" />
</svg>