<svg width="80" height="39" viewBox="0 0 80 39" fill="none" xmlns="http://www.w3.org/2000/svg">
  <path d="M27.2707 1H7.27012C7.14756 1 7.04118 1.0845 7.01344 1.20388L1.04088 26.9119C1.01624 27.0179 1.05935 27.1282 1.14938 27.1894L17.3177 38.1839C17.409 38.2459 17.5292 38.2446 17.6191 38.1804L33.0075 27.1887C33.0931 27.1275 33.1342 27.0212 33.1118 26.9183L27.5282 1.20759C27.5019 1.08643 27.3947 1 27.2707 1Z" fill="white" stroke="#145BA1" strokeWidth="1.31757" />
  <path d="M8.37842 8.11475H25.7703" stroke="#389BDF" strokeWidth="0.342568" stroke-linecap="round" />
  <path d="M17.0743 13.1216H6.27023L3.41117 25.5975C3.38723 25.7019 3.42892 25.8105 3.51663 25.872L17.0743 35.3885V13.1216Z" fill="#28A2F7" />
  <path d="M17.0743 13.1216H27.8783L30.7374 25.5975C30.7613 25.7019 30.7196 25.8105 30.6319 25.872L17.0743 35.3885V13.1216Z" fill="#1968B7" />
  <path d="M14.2173 21.9205V23.3411H18.63H23.0426V21.9205V20.5H18.63H14.2173V21.9205Z" fill="white" />
  <path d="M11.6603 21.2737C11.6422 21.2979 11.4911 21.6908 11.3218 22.1502L11.0135 22.9904V23.8185C11.0135 24.3807 11.0377 24.6709 11.0861 24.7192C11.1284 24.7615 11.2614 24.7917 11.3883 24.7917C11.5697 24.7917 11.618 24.7676 11.618 24.6829C11.618 24.5197 11.9505 24.0845 12.156 23.9757C12.5429 23.7762 12.9962 23.8971 13.2864 24.2779L13.4435 24.4895H13.9634H14.4772L14.7613 24.2235C14.9487 24.0482 15.13 23.9394 15.2751 23.9092C15.7526 23.8246 16.2241 24.1268 16.3088 24.5802C16.339 24.7494 16.3752 24.7917 16.4901 24.7917C16.6896 24.7917 16.6775 24.6527 16.4478 24.1994C16.1516 23.6009 16.0972 23.5828 14.6464 23.5828H13.4315V22.4041V21.2253H12.561C12.0774 21.2253 11.6724 21.2435 11.6603 21.2737ZM12.7665 22.1321V22.67L12.5731 22.7003C12.1439 22.7728 11.2916 22.8514 11.2674 22.8272C11.2433 22.803 11.5334 21.8721 11.6301 21.6908C11.6724 21.6062 11.7691 21.588 12.2225 21.588H12.7665V22.1321Z" fill="white" />
  <path d="M19.6816 23.6976C19.4519 23.8367 19.2585 24.0966 19.1437 24.4351C19.0228 24.7676 19.0288 24.7917 19.2041 24.7917C19.325 24.7917 19.3613 24.7494 19.4096 24.562C19.4822 24.3082 19.7179 24.0241 19.9416 23.9394C20.1713 23.8548 20.5581 23.8729 20.7516 23.9878C20.8483 24.0482 20.9269 24.1147 20.9269 24.1389C20.9269 24.1631 20.9934 24.1873 21.078 24.1873C21.1626 24.1873 21.2291 24.1631 21.2291 24.1268C21.2291 23.9938 21.6099 23.8729 21.9363 23.8971C22.2144 23.9213 22.299 23.9576 22.4804 24.1389C22.5952 24.2598 22.7101 24.4412 22.7342 24.556C22.7645 24.7253 22.8068 24.7676 22.9398 24.7797C23.0969 24.7978 23.103 24.7857 23.0667 24.6285C22.9942 24.3142 22.7101 23.8609 22.5045 23.7218C22.3051 23.5888 22.2507 23.5828 21.084 23.5828C19.996 23.5828 19.8509 23.5949 19.6816 23.6976Z" fill="white" />
  <path d="M12.2466 24.127C12.0774 24.1935 11.8779 24.4534 11.8295 24.665C11.7812 24.8947 11.9262 25.2392 12.1378 25.3783C12.2345 25.4387 12.4159 25.4871 12.567 25.4871C13.2561 25.4871 13.4979 24.4715 12.8874 24.1572C12.6939 24.0605 12.4461 24.0424 12.2466 24.127Z" fill="white" />
  <path d="M15.0514 24.1691C14.6645 24.417 14.604 24.9671 14.9305 25.2935C15.2992 25.6562 15.8916 25.5171 16.079 25.0215C16.1878 24.7494 16.1394 24.5439 15.9218 24.3021C15.7102 24.0664 15.3052 24.0059 15.0514 24.1691Z" fill="white" />
  <path d="M19.863 24.1753C19.2948 24.538 19.5487 25.4871 20.2197 25.4871C20.5461 25.4871 20.7879 25.3299 20.9088 25.0458C21.1627 24.4292 20.4313 23.8187 19.863 24.1753Z" fill="white" />
  <path d="M21.4891 24.1873C21.2473 24.3324 21.1687 24.4775 21.1687 24.7736C21.1687 25.2875 21.616 25.6199 22.0996 25.4567C22.6376 25.2814 22.7282 24.4835 22.2447 24.1873C21.9908 24.0362 21.7369 24.0362 21.4891 24.1873Z" fill="white" />
  <rect width="14.2297" height="1.31757" transform="translate(9.95947 9.95947)" fill="#28A2F7" />
  <rect width="18.1824" height="1.31757" transform="translate(8.11487 4.68921)" fill="#145BA1" />
  <path d="M38.9003 12.6436V6.66782H44.4196V7.96256H40.2034V9.00831H43.5979V10.3031H40.2034V12.6436H38.9003ZM44.674 12.6436V6.66782H45.9439V12.6436H44.674ZM51.296 12.6436L49.5614 10.5769H51.2462L52.624 12.2037V12.6436H51.296ZM46.6565 12.6436V6.67612H51.3956C51.6225 6.67612 51.8272 6.73145 52.0098 6.84211C52.1979 6.95277 52.3473 7.10216 52.458 7.29029C52.5742 7.47842 52.6323 7.68314 52.6323 7.90446V9.4482C52.6323 9.66952 52.5742 9.87424 52.458 10.0624C52.3473 10.2505 52.1979 10.3999 52.0098 10.5105C51.8272 10.6212 51.6225 10.6765 51.3956 10.6765L47.943 10.6848V12.6436H46.6565ZM47.943 9.3818H51.3292V7.96256H47.943V9.3818ZM54.7171 12.6436C54.4958 12.6436 54.291 12.5882 54.1029 12.4776C53.9148 12.3669 53.7654 12.2175 53.6547 12.0294C53.5441 11.8413 53.4887 11.6365 53.4887 11.4152V10.8591H54.7752V11.3488H58.1614V10.3031H54.7171C54.4958 10.3031 54.291 10.2477 54.1029 10.1371C53.9148 10.0264 53.7654 9.87978 53.6547 9.69718C53.5441 9.50906 53.4887 9.30157 53.4887 9.07471V7.89616C53.4887 7.66931 53.5441 7.46458 53.6547 7.28199C53.7654 7.09387 53.9148 6.94447 54.1029 6.83381C54.291 6.72315 54.4958 6.66782 54.7171 6.66782H58.2361C58.4575 6.66782 58.6594 6.72315 58.842 6.83381C59.0301 6.94447 59.1795 7.09387 59.2902 7.28199C59.4064 7.46458 59.4645 7.66931 59.4645 7.89616V8.45224H58.1614V7.96256H54.7752V9.00831H58.2361C58.4575 9.00831 58.6594 9.06365 58.842 9.17431C59.0301 9.28497 59.1795 9.43436 59.2902 9.62249C59.4064 9.80508 59.4645 10.0098 59.4645 10.2367V11.4152C59.4645 11.6365 59.4064 11.8413 59.2902 12.0294C59.1795 12.2175 59.0301 12.3669 58.842 12.4776C58.6594 12.5882 58.4575 12.6436 58.2361 12.6436H54.7171ZM62.4202 12.6436V7.96256H60.0797V6.66782H66.0554V7.96256H63.7149V12.6436H62.4202ZM40.9254 22.6436V17.9626H38.5849V16.6678H44.5607V17.9626H42.2202V22.6436H40.9254ZM49.8209 22.6436L48.0863 20.5769H49.7711L51.1488 22.2037V22.6436H49.8209ZM45.1814 22.6436V16.6761H49.9205C50.1473 16.6761 50.3521 16.7314 50.5347 16.8421C50.7228 16.9528 50.8722 17.1022 50.9828 17.2903C51.099 17.4784 51.1571 17.6831 51.1571 17.9045V19.4482C51.1571 19.6695 51.099 19.8742 50.9828 20.0624C50.8722 20.2505 50.7228 20.3999 50.5347 20.5105C50.3521 20.6212 50.1473 20.6765 49.9205 20.6765L46.4678 20.6848V22.6436H45.1814ZM46.4678 19.3818H49.8541V17.9626H46.4678V19.3818ZM53.242 22.6436C53.0206 22.6436 52.8159 22.5882 52.6278 22.4776C52.4397 22.3669 52.2903 22.2175 52.1796 22.0294C52.0689 21.8413 52.0136 21.6365 52.0136 21.4152V16.6678H53.3001V21.3488H56.6863V16.6678H57.9894V21.4152C57.9894 21.6365 57.9313 21.8413 57.8151 22.0294C57.7044 22.2175 57.555 22.3669 57.3669 22.4776C57.1843 22.5882 56.9823 22.6436 56.761 22.6436H53.242ZM60.1317 22.6436C59.9048 22.6436 59.6973 22.5882 59.5092 22.4776C59.3266 22.3669 59.18 22.2203 59.0693 22.0377C58.9587 21.8496 58.9034 21.6421 58.9034 21.4152V17.8962C58.9034 17.6693 58.9587 17.4646 59.0693 17.282C59.18 17.0939 59.3266 16.9445 59.5092 16.8338C59.6973 16.7231 59.9048 16.6678 60.1317 16.6678H64.8625V17.9626H60.4637C60.3752 17.9626 60.306 17.9847 60.2562 18.029C60.2119 18.0732 60.1898 18.1424 60.1898 18.2364V21.0749C60.1898 21.1635 60.2119 21.2326 60.2562 21.2824C60.306 21.3267 60.3752 21.3488 60.4637 21.3488H64.8625V22.6436H60.1317ZM65.7362 22.6436V16.6678H67.0309V19.0083H68.2011L70.1599 16.6678H71.5044V17.116L69.3714 19.6557L71.5044 22.1954V22.6436H70.1599L68.2011 20.3031H67.0309V22.6436H65.7362ZM73.5534 22.6436C73.332 22.6436 73.1273 22.5882 72.9392 22.4776C72.7511 22.3669 72.6017 22.2175 72.491 22.0294C72.3804 21.8413 72.325 21.6365 72.325 21.4152V20.8591H73.6115V21.3488H76.9977V20.3031H73.5534C73.332 20.3031 73.1273 20.2477 72.9392 20.1371C72.7511 20.0264 72.6017 19.8798 72.491 19.6972C72.3804 19.5091 72.325 19.3016 72.325 19.0747V17.8962C72.325 17.6693 72.3804 17.4646 72.491 17.282C72.6017 17.0939 72.7511 16.9445 72.9392 16.8338C73.1273 16.7231 73.332 16.6678 73.5534 16.6678H77.0724C77.2937 16.6678 77.4957 16.7231 77.6783 16.8338C77.8664 16.9445 78.0158 17.0939 78.1265 17.282C78.2427 17.4646 78.3008 17.6693 78.3008 17.8962V18.4522H76.9977V17.9626H73.6115V19.0083H77.0724C77.2937 19.0083 77.4957 19.0636 77.6783 19.1743C77.8664 19.285 78.0158 19.4344 78.1265 19.6225C78.2427 19.8051 78.3008 20.0098 78.3008 20.2367V21.4152C78.3008 21.6365 78.2427 21.8413 78.1265 22.0294C78.0158 22.2175 77.8664 22.3669 77.6783 22.4776C77.4957 22.5882 77.2937 22.6436 77.0724 22.6436H73.5534ZM40.0955 32.6436C39.8741 32.6436 39.6694 32.5882 39.4813 32.4776C39.2932 32.3669 39.1438 32.2175 39.0331 32.0294C38.9225 31.8413 38.8671 31.6365 38.8671 31.4152V30.8591H40.1536V31.3488H43.5398V30.3031H40.0955C39.8741 30.3031 39.6694 30.2477 39.4813 30.1371C39.2932 30.0264 39.1438 29.8798 39.0331 29.6972C38.9225 29.5091 38.8671 29.3016 38.8671 29.0747V27.8962C38.8671 27.6693 38.9225 27.4646 39.0331 27.282C39.1438 27.0939 39.2932 26.9445 39.4813 26.8338C39.6694 26.7231 39.8741 26.6678 40.0955 26.6678H43.6145C43.8358 26.6678 44.0378 26.7231 44.2204 26.8338C44.4085 26.9445 44.5579 27.0939 44.6686 27.282C44.7848 27.4646 44.8429 27.6693 44.8429 27.8962V28.4522H43.5398V27.9626H40.1536V29.0083H43.6145C43.8358 29.0083 44.0378 29.0636 44.2204 29.1743C44.4085 29.285 44.5579 29.4344 44.6686 29.6225C44.7848 29.8051 44.8429 30.0098 44.8429 30.2367V31.4152C44.8429 31.6365 44.7848 31.8413 44.6686 32.0294C44.5579 32.2175 44.4085 32.3669 44.2204 32.4776C44.0378 32.5882 43.8358 32.6436 43.6145 32.6436H40.0955ZM45.7735 32.6436V27.8962C45.7735 27.6693 45.8288 27.4646 45.9395 27.282C46.0501 27.0939 46.1995 26.9445 46.3876 26.8338C46.5758 26.7231 46.7805 26.6678 47.0018 26.6678H50.5126C50.7394 26.6678 50.9441 26.7231 51.1267 26.8338C51.3148 26.9445 51.4642 27.0939 51.5749 27.282C51.6911 27.4646 51.7492 27.6693 51.7492 27.8962V32.6436H50.4462V30.718H47.0599V32.6436H45.7735ZM47.0599 29.4233H50.4462V27.9626H47.0599V29.4233ZM57.3343 32.6436L55.5997 30.5769H57.2845L58.6623 32.2037V32.6436H57.3343ZM52.6948 32.6436V26.6761H57.4339C57.6608 26.6761 57.8655 26.7314 58.0481 26.8421C58.2362 26.9528 58.3856 27.1022 58.4963 27.2903C58.6125 27.4784 58.6706 27.6831 58.6706 27.9045V29.4482C58.6706 29.6695 58.6125 29.8742 58.4963 30.0624C58.3856 30.2505 58.2362 30.3999 58.0481 30.5105C57.8655 30.6212 57.6608 30.6765 57.4339 30.6765L53.9813 30.6848V32.6436H52.6948ZM53.9813 29.3818H57.3675V27.9626H53.9813V29.3818ZM59.552 32.6436V26.6595H60.8384V31.3488H65.5277V32.6436H59.552Z" fill="#145BA1" />
</svg>