<svg width="231" height="60" viewBox="0 0 231 60" fill="none" xmlns="http://www.w3.org/2000/svg">
<rect width="230.882" height="58.1107" transform="translate(0.117676 0.94458)" fill="#145BA1"/>
<g clip-path="url(#clip0_174_1952)">
<path d="M16.7212 29.8452C16.7206 32.0204 17.289 34.1443 18.3697 36.0163L16.6179 42.4126L23.1636 40.6963C24.9741 41.6819 27.0026 42.1983 29.064 42.1985H29.0694C35.8744 42.1985 41.4138 36.6611 41.4167 29.8549C41.418 26.5568 40.1348 23.4555 37.8033 21.1223C35.4723 18.7892 32.3721 17.5037 29.0689 17.5022C22.2631 17.5022 16.7241 23.0393 16.7213 29.8452" fill="#145BA1"/>
<path d="M16.2804 29.8411C16.2797 32.0946 16.8684 34.2945 17.9877 36.2336L16.173 42.8591L22.9535 41.0813C24.8218 42.0999 26.9252 42.6369 29.0656 42.6377H29.0711C36.1202 42.6377 41.8586 36.9012 41.8616 29.8513C41.8628 26.4348 40.5334 23.222 38.1187 20.8052C35.7037 18.3886 32.4926 17.0568 29.0711 17.0554C22.0208 17.0554 16.2832 22.7912 16.2804 29.8411ZM20.3183 35.8996L20.0652 35.4977C19.0009 33.8055 18.4391 31.8499 18.44 29.8419C18.4423 23.9822 23.2111 19.2149 29.0751 19.2149C31.9149 19.2161 34.5837 20.3231 36.591 22.3316C38.5983 24.3403 39.7028 27.0105 39.7021 29.8505C39.6995 35.7102 34.9305 40.4782 29.0711 40.4782H29.0669C27.159 40.4772 25.2879 39.9648 23.656 38.9966L23.2677 38.7663L19.244 39.8212L20.3183 35.8995V35.8996Z" fill="url(#paint0_linear_174_1952)"/>
<path d="M25.8744 24.4957C25.635 23.9635 25.383 23.9528 25.1553 23.9435C24.9689 23.9354 24.7558 23.936 24.5428 23.936C24.3297 23.936 23.9834 24.0162 23.6907 24.3358C23.3977 24.6557 22.572 25.4288 22.572 27.0011C22.572 28.5735 23.7173 30.0931 23.8769 30.3065C24.0368 30.5195 26.0878 33.8494 29.3362 35.1304C32.036 36.195 32.5854 35.9833 33.1713 35.9299C33.7573 35.8767 35.0622 35.157 35.3284 34.4108C35.5948 33.6646 35.5948 33.025 35.515 32.8913C35.4351 32.7582 35.2219 32.6782 34.9023 32.5184C34.5826 32.3586 33.0114 31.5854 32.7185 31.4788C32.4255 31.3722 32.2125 31.319 31.9993 31.639C31.7862 31.9585 31.1742 32.6782 30.9876 32.8913C30.8013 33.105 30.6148 33.1316 30.2953 32.9717C29.9754 32.8113 28.9462 32.4743 27.7251 31.3856C26.775 30.5385 26.1336 29.4924 25.9472 29.1724C25.7607 28.8529 25.9272 28.6797 26.0874 28.5205C26.231 28.3773 26.4071 28.1473 26.5671 27.9607C26.7264 27.7741 26.7796 27.6409 26.8862 27.4278C26.9929 27.2145 26.9395 27.0278 26.8597 26.868C26.7796 26.7081 26.1586 25.1276 25.8744 24.4957Z" fill="white"/>
</g>
<path d="M58.4997 29.7834C58.4997 28.5589 58.7646 27.4698 59.2944 26.5161C59.8242 25.5506 60.5601 24.803 61.502 24.2732C62.4557 23.7316 63.533 23.4608 64.734 23.4608C66.2057 23.4608 67.4655 23.8493 68.5134 24.6264C69.5613 25.4035 70.2618 26.4631 70.6151 27.8053H67.2948C67.0476 27.2873 66.6943 26.8929 66.2352 26.6221C65.7877 26.3513 65.2756 26.2159 64.6987 26.2159C63.7685 26.2159 63.015 26.5396 62.4381 27.1872C61.8611 27.8348 61.5727 28.7002 61.5727 29.7834C61.5727 30.8666 61.8611 31.7319 62.4381 32.3795C63.015 33.0271 63.7685 33.3509 64.6987 33.3509C65.2756 33.3509 65.7877 33.2155 66.2352 32.9447C66.6943 32.6739 67.0476 32.2794 67.2948 31.7614H70.6151C70.2618 33.1036 69.5613 34.1633 68.5134 34.9403C67.4655 35.7057 66.2057 36.0883 64.734 36.0883C63.533 36.0883 62.4557 35.8234 61.502 35.2936C60.5601 34.752 59.8242 34.0043 59.2944 33.0506C58.7646 32.0969 58.4997 31.0079 58.4997 29.7834ZM76.9504 36.1413C75.9849 36.1413 75.1136 35.9352 74.3365 35.5232C73.5712 35.1111 72.9649 34.5224 72.5175 33.7571C72.0818 32.9918 71.864 32.0969 71.864 31.0726C71.864 30.0601 72.0877 29.1711 72.5351 28.4058C72.9825 27.6287 73.5948 27.0341 74.3719 26.6221C75.1489 26.21 76.0202 26.0039 76.9857 26.0039C77.9511 26.0039 78.8224 26.21 79.5995 26.6221C80.3766 27.0341 80.9888 27.6287 81.4362 28.4058C81.8836 29.1711 82.1073 30.0601 82.1073 31.0726C82.1073 32.0852 81.8777 32.98 81.4186 33.7571C80.9712 34.5224 80.353 35.1111 79.5642 35.5232C78.7871 35.9352 77.9158 36.1413 76.9504 36.1413ZM76.9504 33.5275C77.5273 33.5275 78.0159 33.3155 78.4162 32.8917C78.8283 32.4678 79.0343 31.8615 79.0343 31.0726C79.0343 30.2838 78.8342 29.6774 78.4339 29.2535C78.0453 28.8297 77.5626 28.6177 76.9857 28.6177C76.397 28.6177 75.9084 28.8297 75.5198 29.2535C75.1313 29.6656 74.937 30.272 74.937 31.0726C74.937 31.8615 75.1254 32.4678 75.5022 32.8917C75.8907 33.3155 76.3734 33.5275 76.9504 33.5275ZM89.7142 26.0393C90.8681 26.0393 91.7864 26.416 92.4693 27.1695C93.164 27.9113 93.5113 28.9356 93.5113 30.2425V36H90.509V30.6487C90.509 29.9894 90.3382 29.4772 89.9968 29.1122C89.6553 28.7473 89.1962 28.5648 88.6192 28.5648C88.0423 28.5648 87.5831 28.7473 87.2417 29.1122C86.9002 29.4772 86.7295 29.9894 86.7295 30.6487V36H83.7095V26.1452H86.7295V27.4521C87.0356 27.0165 87.4477 26.675 87.9658 26.4278C88.4838 26.1688 89.0667 26.0393 89.7142 26.0393ZM101.102 33.4392V36H99.566C98.471 36 97.6174 35.7351 97.0051 35.2053C96.3929 34.6637 96.0868 33.7865 96.0868 32.5738V28.6531H94.8858V26.1452H96.0868V23.7433H99.1068V26.1452H101.085V28.6531H99.1068V32.6091C99.1068 32.9035 99.1774 33.1154 99.3187 33.2449C99.46 33.3744 99.6955 33.4392 100.025 33.4392H101.102ZM102.184 31.0549C102.184 30.0424 102.373 29.1535 102.749 28.3882C103.138 27.6228 103.662 27.0341 104.321 26.6221C104.981 26.21 105.716 26.0039 106.529 26.0039C107.223 26.0039 107.83 26.1452 108.348 26.4278C108.878 26.7104 109.284 27.0812 109.566 27.5404V26.1452H112.586V36H109.566V34.6048C109.272 35.064 108.86 35.4349 108.33 35.7174C107.812 36 107.206 36.1413 106.511 36.1413C105.71 36.1413 104.981 35.9352 104.321 35.5232C103.662 35.0993 103.138 34.5047 102.749 33.7394C102.373 32.9623 102.184 32.0675 102.184 31.0549ZM109.566 31.0726C109.566 30.3191 109.355 29.7245 108.931 29.2889C108.519 28.8532 108.012 28.6354 107.412 28.6354C106.811 28.6354 106.299 28.8532 105.875 29.2889C105.463 29.7127 105.257 30.3014 105.257 31.0549C105.257 31.8085 105.463 32.409 105.875 32.8564C106.299 33.292 106.811 33.5098 107.412 33.5098C108.012 33.5098 108.519 33.292 108.931 32.8564C109.355 32.4207 109.566 31.8261 109.566 31.0726ZM114.171 31.0726C114.171 30.0483 114.377 29.1535 114.789 28.3882C115.213 27.6228 115.796 27.0341 116.537 26.6221C117.291 26.21 118.15 26.0039 119.116 26.0039C120.352 26.0039 121.382 26.3277 122.207 26.9753C123.042 27.6228 123.59 28.5353 123.849 29.7127H120.635C120.364 28.9592 119.84 28.5824 119.063 28.5824C118.51 28.5824 118.068 28.8002 117.738 29.2359C117.409 29.6597 117.244 30.272 117.244 31.0726C117.244 31.8732 117.409 32.4914 117.738 32.927C118.068 33.3509 118.51 33.5628 119.063 33.5628C119.84 33.5628 120.364 33.186 120.635 32.4325H123.849C123.59 33.5863 123.042 34.4929 122.207 35.1523C121.371 35.8116 120.34 36.1413 119.116 36.1413C118.15 36.1413 117.291 35.9352 116.537 35.5232C115.796 35.1111 115.213 34.5224 114.789 33.7571C114.377 32.9918 114.171 32.0969 114.171 31.0726ZM130.957 33.4392V36H129.42C128.325 36 127.472 35.7351 126.86 35.2053C126.247 34.6637 125.941 33.7865 125.941 32.5738V28.6531H124.74V26.1452H125.941V23.7433H128.961V26.1452H130.939V28.6531H128.961V32.6091C128.961 32.9035 129.032 33.1154 129.173 33.2449C129.315 33.3744 129.55 33.4392 129.88 33.4392H130.957ZM141.929 30.9137C141.929 31.1962 141.911 31.4906 141.876 31.7967H135.041C135.088 32.409 135.282 32.8799 135.624 33.2096C135.977 33.5275 136.407 33.6864 136.913 33.6864C137.667 33.6864 138.191 33.3685 138.485 32.7327H141.699C141.534 33.3803 141.234 33.9631 140.799 34.4812C140.375 34.9992 139.839 35.4054 139.191 35.6998C138.544 35.9941 137.82 36.1413 137.019 36.1413C136.054 36.1413 135.194 35.9352 134.441 35.5232C133.687 35.1111 133.098 34.5224 132.674 33.7571C132.251 32.9918 132.039 32.0969 132.039 31.0726C132.039 30.0483 132.245 29.1535 132.657 28.3882C133.081 27.6228 133.669 27.0341 134.423 26.6221C135.176 26.21 136.042 26.0039 137.019 26.0039C137.973 26.0039 138.82 26.2041 139.562 26.6044C140.304 27.0047 140.881 27.5758 141.293 28.3175C141.717 29.0593 141.929 29.9247 141.929 30.9137ZM138.838 30.1189C138.838 29.6009 138.662 29.1888 138.308 28.8827C137.955 28.5765 137.514 28.4235 136.984 28.4235C136.477 28.4235 136.048 28.5706 135.695 28.865C135.353 29.1593 135.141 29.5773 135.059 30.1189H138.838ZM146.348 33.5098H150.622V36H142.975V33.5981L147.072 28.6354H143.01V26.1452H150.533V28.5471L146.348 33.5098ZM159.878 28.5471V31.0549H152.107V28.5471H159.878ZM168.533 26.0393C169.687 26.0393 170.605 26.416 171.288 27.1695C171.983 27.9113 172.33 28.9356 172.33 30.2425V36H169.328V30.6487C169.328 29.9894 169.157 29.4772 168.815 29.1122C168.474 28.7473 168.015 28.5648 167.438 28.5648C166.861 28.5648 166.402 28.7473 166.06 29.1122C165.719 29.4772 165.548 29.9894 165.548 30.6487V36H162.528V26.1452H165.548V27.4521C165.854 27.0165 166.266 26.675 166.784 26.4278C167.303 26.1688 167.885 26.0393 168.533 26.0393ZM178.914 36.1413C177.949 36.1413 177.078 35.9352 176.301 35.5232C175.535 35.1111 174.929 34.5224 174.482 33.7571C174.046 32.9918 173.828 32.0969 173.828 31.0726C173.828 30.0601 174.052 29.1711 174.499 28.4058C174.947 27.6287 175.559 27.0341 176.336 26.6221C177.113 26.21 177.984 26.0039 178.95 26.0039C179.915 26.0039 180.787 26.21 181.564 26.6221C182.341 27.0341 182.953 27.6287 183.4 28.4058C183.848 29.1711 184.071 30.0601 184.071 31.0726C184.071 32.0852 183.842 32.98 183.383 33.7571C182.935 34.5224 182.317 35.1111 181.528 35.5232C180.751 35.9352 179.88 36.1413 178.914 36.1413ZM178.914 33.5275C179.491 33.5275 179.98 33.3155 180.38 32.8917C180.792 32.4678 180.998 31.8615 180.998 31.0726C180.998 30.2838 180.798 29.6774 180.398 29.2535C180.009 28.8297 179.527 28.6177 178.95 28.6177C178.361 28.6177 177.872 28.8297 177.484 29.2535C177.095 29.6656 176.901 30.272 176.901 31.0726C176.901 31.8615 177.089 32.4678 177.466 32.8917C177.855 33.3155 178.338 33.5275 178.914 33.5275ZM195.405 26.1452V36H192.385V34.6578C192.079 35.0934 191.661 35.4466 191.131 35.7174C190.613 35.9765 190.036 36.106 189.4 36.106C188.647 36.106 187.981 35.9411 187.404 35.6115C186.827 35.27 186.38 34.7814 186.062 34.1456C185.744 33.5098 185.585 32.7622 185.585 31.9027V26.1452H188.588V31.4965C188.588 32.1558 188.758 32.668 189.1 33.033C189.441 33.398 189.9 33.5805 190.477 33.5805C191.066 33.5805 191.531 33.398 191.873 33.033C192.214 32.668 192.385 32.1558 192.385 31.4965V26.1452H195.405ZM201.583 36.1413C200.724 36.1413 199.958 35.9941 199.287 35.6998C198.616 35.4054 198.086 35.0051 197.698 34.4988C197.309 33.9808 197.091 33.4038 197.044 32.7681H200.029C200.064 33.1095 200.223 33.3862 200.506 33.5981C200.788 33.81 201.136 33.916 201.548 33.916C201.924 33.916 202.213 33.8454 202.413 33.7041C202.625 33.551 202.731 33.3568 202.731 33.1213C202.731 32.8387 202.584 32.6327 202.289 32.5031C201.995 32.3619 201.518 32.2088 200.859 32.044C200.153 31.8791 199.564 31.7084 199.093 31.5318C198.622 31.3434 198.216 31.0549 197.874 30.6664C197.533 30.2661 197.362 29.7304 197.362 29.0593C197.362 28.4941 197.515 27.982 197.821 27.5228C198.139 27.0518 198.598 26.6809 199.199 26.4101C199.811 26.1393 200.535 26.0039 201.371 26.0039C202.607 26.0039 203.579 26.3101 204.285 26.9223C205.003 27.5345 205.415 28.3469 205.521 29.3595H202.731C202.684 29.0181 202.531 28.7473 202.272 28.5471C202.025 28.3469 201.695 28.2469 201.283 28.2469C200.93 28.2469 200.659 28.3175 200.47 28.4588C200.282 28.5883 200.188 28.7708 200.188 29.0063C200.188 29.2889 200.335 29.5008 200.629 29.6421C200.935 29.7834 201.406 29.9246 202.042 30.0659C202.772 30.2543 203.367 30.4427 203.826 30.6311C204.285 30.8077 204.685 31.102 205.027 31.5141C205.38 31.9144 205.563 32.456 205.574 33.1389C205.574 33.7159 205.41 34.2339 205.08 34.6931C204.762 35.1405 204.297 35.4937 203.685 35.7527C203.084 36.0118 202.384 36.1413 201.583 36.1413Z" fill="white"/>
<defs>
<linearGradient id="paint0_linear_174_1952" x1="1300.6" y1="2597.42" x2="1300.6" y2="17.0554" gradientUnits="userSpaceOnUse">
<stop stop-color="#F9F9F9"/>
<stop offset="1" stop-color="white"/>
</linearGradient>
<clipPath id="clip0_174_1952">
<rect width="25.6886" height="25.8893" fill="white" transform="translate(16.173 17.0554)"/>
</clipPath>
</defs>
</svg>
