<svg width="866" height="222" viewBox="0 0 866 222" fill="none" xmlns="http://www.w3.org/2000/svg">
<g clip-path="url(#clip0_70_1634)" filter="url(#filter0_f_70_1634)">
<path d="M-7.5777 133.63H27.5571L36.8548 174.202C36.9326 174.541 36.797 174.894 36.5118 175.094L-7.5777 206.042V133.63Z" fill="#1968B7"/>
<path d="M-8.7248 131.171H26.41L35.7077 90.5997C35.7855 90.26 35.6499 89.9071 35.3647 89.7069L-8.7248 58.7594V131.171Z" fill="#28A2F7"/>
<path d="M320.246 133.63H355.381L364.679 174.202C364.757 174.541 364.621 174.894 364.336 175.094L320.246 206.042V133.63Z" fill="#1968B7"/>
<path d="M320.246 133.63H285.111L275.814 174.202C275.736 174.541 275.871 174.894 276.157 175.094L320.246 206.042V133.63Z" fill="#28A2F7"/>
<path d="M319.099 131.171H283.964L274.667 90.5997C274.589 90.26 274.724 89.9071 275.01 89.7069L319.099 58.7594V131.171Z" fill="#1968B7"/>
<path d="M319.099 131.171H354.234L363.532 90.5997C363.61 90.26 363.474 89.9071 363.189 89.7069L319.099 58.7594V131.171Z" fill="#28A2F7"/>
<path d="M484.158 133.63H519.293L528.591 174.202C528.669 174.541 528.533 174.894 528.248 175.094L484.158 206.042V133.63Z" fill="#1968B7"/>
<path d="M484.158 133.63H449.023L439.726 174.202C439.648 174.541 439.783 174.894 440.069 175.094L484.158 206.042V133.63Z" fill="#28A2F7"/>
<path d="M483.011 131.171H447.876L438.579 90.5997C438.501 90.26 438.636 89.9071 438.922 89.7069L483.011 58.7594V131.171Z" fill="#1968B7"/>
<path d="M483.011 131.171H518.146L527.444 90.5997C527.521 90.26 527.386 89.9071 527.101 89.7069L483.011 58.7594V131.171Z" fill="#28A2F7"/>
<path d="M648.07 133.63H683.205L692.503 174.202C692.581 174.541 692.445 174.894 692.16 175.094L648.07 206.042V133.63Z" fill="#1968B7"/>
<path d="M648.07 133.63H612.935L603.638 174.202C603.56 174.541 603.695 174.894 603.981 175.094L648.07 206.042V133.63Z" fill="#28A2F7"/>
<path d="M646.923 131.171H611.788L602.491 90.5997C602.413 90.26 602.548 89.9071 602.834 89.7069L646.923 58.7594V131.171Z" fill="#1968B7"/>
<path d="M646.923 131.171H682.058L691.356 90.5997C691.434 90.26 691.298 89.9071 691.013 89.7069L646.923 58.7594V131.171Z" fill="#28A2F7"/>
<path d="M811.982 133.63H847.117L856.415 174.202C856.493 174.541 856.357 174.894 856.072 175.094L811.982 206.042V133.63Z" fill="#1968B7"/>
<path d="M811.982 133.63H776.848L767.55 174.202C767.472 174.541 767.608 174.894 767.893 175.094L811.982 206.042V133.63Z" fill="#28A2F7"/>
<path d="M810.835 131.171H775.701L766.403 90.5997C766.325 90.26 766.461 89.9071 766.746 89.7069L810.835 58.7594V131.171Z" fill="#1968B7"/>
<path d="M810.835 131.171H845.97L855.268 90.5997C855.346 90.26 855.21 89.9071 854.925 89.7069L810.835 58.7594V131.171Z" fill="#28A2F7"/>
<path d="M156.334 133.63H191.469L200.767 174.202C200.845 174.541 200.709 174.894 200.424 175.094L156.334 206.042V133.63Z" fill="#1968B7"/>
<path d="M156.334 133.63H121.199L111.902 174.202C111.824 174.541 111.959 174.894 112.245 175.094L156.334 206.042V133.63Z" fill="#28A2F7"/>
<path d="M155.187 131.171H120.052L110.754 90.5997C110.677 90.26 110.812 89.9071 111.097 89.7069L155.187 58.7594V131.171Z" fill="#1968B7"/>
<path d="M155.187 131.171H190.322L199.62 90.5997C199.697 90.26 199.562 89.9071 199.277 89.7069L155.187 58.7594V131.171Z" fill="#28A2F7"/>
<path d="M73.1904 90.8704H108.325L117.623 131.442C117.701 131.782 117.565 132.135 117.28 132.335L73.1904 163.282V90.8704Z" fill="#1968B7"/>
<path d="M73.1903 90.8704H38.0555L28.7578 131.442C28.68 131.782 28.8156 132.135 29.1008 132.335L73.1903 163.282V90.8704Z" fill="#28A2F7"/>
<path d="M72.0434 88.4119H36.9086L27.6109 47.8402C27.5331 47.5005 27.6687 47.1475 27.9539 46.9473L72.0434 15.9999V88.4119Z" fill="#1968B7"/>
<path d="M72.0435 88.4119H107.178L116.476 47.8402C116.554 47.5005 116.418 47.1475 116.133 46.9473L72.0435 15.9999V88.4119Z" fill="#28A2F7"/>
<path d="M401.014 90.8704H436.149L445.447 131.442C445.525 131.782 445.389 132.135 445.104 132.335L401.014 163.282V90.8704Z" fill="#1968B7"/>
<path d="M401.014 90.8704H365.88L356.582 131.442C356.504 131.782 356.64 132.135 356.925 132.335L401.014 163.282V90.8704Z" fill="#28A2F7"/>
<path d="M399.867 88.4119H364.732L355.435 47.8402C355.357 47.5005 355.493 47.1475 355.778 46.9473L399.867 15.9999V88.4119Z" fill="#1968B7"/>
<path d="M399.867 88.4119H435.002L444.3 47.8402C444.378 47.5005 444.242 47.1475 443.957 46.9473L399.867 15.9999V88.4119Z" fill="#28A2F7"/>
<path d="M564.927 90.8704H600.061L609.359 131.442C609.437 131.782 609.301 132.135 609.016 132.335L564.927 163.282V90.8704Z" fill="#1968B7"/>
<path d="M564.926 90.8704H529.792L520.494 131.442C520.416 131.782 520.552 132.135 520.837 132.335L564.926 163.282V90.8704Z" fill="#28A2F7"/>
<path d="M563.779 88.4119H528.644L519.347 47.8402C519.269 47.5005 519.404 47.1475 519.69 46.9473L563.779 15.9999V88.4119Z" fill="#1968B7"/>
<path d="M563.779 88.4119H598.914L608.212 47.8402C608.29 47.5005 608.154 47.1475 607.869 46.9473L563.779 15.9999V88.4119Z" fill="#28A2F7"/>
<path d="M728.839 90.8704H763.973L773.271 131.442C773.349 131.782 773.213 132.135 772.928 132.335L728.839 163.282V90.8704Z" fill="#1968B7"/>
<path d="M728.838 90.8704H693.704L684.406 131.442C684.328 131.782 684.464 132.135 684.749 132.335L728.838 163.282V90.8704Z" fill="#28A2F7"/>
<path d="M727.691 88.4119H692.556L683.259 47.8402C683.181 47.5005 683.316 47.1475 683.602 46.9473L727.691 15.9999V88.4119Z" fill="#1968B7"/>
<path d="M727.691 88.4119H762.826L772.124 47.8402C772.202 47.5005 772.066 47.1475 771.781 46.9473L727.691 15.9999V88.4119Z" fill="#28A2F7"/>
<path d="M892.751 90.8704H857.616L848.318 131.442C848.24 131.782 848.376 132.135 848.661 132.335L892.751 163.282V90.8704Z" fill="#28A2F7"/>
<path d="M891.604 88.4119H856.469L847.171 47.8402C847.093 47.5005 847.229 47.1475 847.514 46.9473L891.604 15.9999V88.4119Z" fill="#1968B7"/>
<path d="M237.102 90.8704H272.237L281.535 131.442C281.613 131.782 281.477 132.135 281.192 132.335L237.102 163.282V90.8704Z" fill="#1968B7"/>
<path d="M237.102 90.8704H201.967L192.67 131.442C192.592 131.782 192.728 132.135 193.013 132.335L237.102 163.282V90.8704Z" fill="#28A2F7"/>
<path d="M235.955 88.4119H200.82L191.523 47.8402C191.445 47.5005 191.58 47.1475 191.866 46.9473L235.955 15.9999V88.4119Z" fill="#1968B7"/>
<path d="M235.955 88.4119H271.09L280.388 47.8402C280.466 47.5005 280.33 47.1475 280.045 46.9473L235.955 15.9999V88.4119Z" fill="#28A2F7"/>
</g>
<defs>
<filter id="filter0_f_70_1634" x="0.486376" y="0.486376" width="864.885" height="221.069" filterUnits="userSpaceOnUse" color-interpolation-filters="sRGB">
<feFlood flood-opacity="0" result="BackgroundImageFix"/>
<feBlend mode="normal" in="SourceGraphic" in2="BackgroundImageFix" result="shape"/>
<feGaussianBlur stdDeviation="7.75681" result="effect1_foregroundBlur_70_1634"/>
</filter>
<clipPath id="clip0_70_1634">
<rect width="833.857" height="190.042" fill="white" transform="translate(16 16)"/>
</clipPath>
</defs>
</svg>
