<svg width="13" height="13" viewBox="0 0 13 13" fill="none" xmlns="http://www.w3.org/2000/svg">
<path d="M6.56266 3.06368C4.7873 3.06368 3.35529 4.49569 3.35529 6.27105C3.35529 8.04641 4.7873 9.47843 6.56266 9.47843C8.33802 9.47843 9.77004 8.04641 9.77004 6.27105C9.77004 4.49569 8.33802 3.06368 6.56266 3.06368ZM6.56266 8.35626C5.41538 8.35626 4.47745 7.42113 4.47745 6.27105C4.47745 5.12097 5.41258 4.18584 6.56266 4.18584C7.71274 4.18584 8.64787 5.12097 8.64787 6.27105C8.64787 7.42113 7.70995 8.35626 6.56266 8.35626ZM10.6493 2.93248C10.6493 3.3484 10.3144 3.68059 9.90123 3.68059C9.48531 3.68059 9.15313 3.34561 9.15313 2.93248C9.15313 2.51934 9.4881 2.18437 9.90123 2.18437C10.3144 2.18437 10.6493 2.51934 10.6493 2.93248ZM12.7736 3.69175C12.7262 2.68962 12.4973 1.80194 11.7631 1.07058C11.0318 0.339223 10.1441 0.110325 9.14196 0.0600786C8.10912 0.00145818 5.01341 0.00145818 3.98057 0.0600786C2.98123 0.107533 2.09355 0.336432 1.3594 1.06779C0.62525 1.79915 0.399143 2.68683 0.348897 3.68896C0.290277 4.7218 0.290277 7.81751 0.348897 8.85035C0.396352 9.85248 0.62525 10.7402 1.3594 11.4715C2.09355 12.2029 2.97844 12.4318 3.98057 12.482C5.01341 12.5406 8.10912 12.5406 9.14196 12.482C10.1441 12.4346 11.0318 12.2057 11.7631 11.4715C12.4945 10.7402 12.7234 9.85248 12.7736 8.85035C12.8323 7.81751 12.8323 4.72459 12.7736 3.69175ZM11.4393 9.95855C11.2216 10.5057 10.8001 10.9272 10.2502 11.1477C9.42669 11.4743 7.47267 11.3989 6.56266 11.3989C5.65265 11.3989 3.69584 11.4715 2.87516 11.1477C2.32803 10.93 1.90653 10.5085 1.686 9.95855C1.3594 9.13508 1.43477 7.18106 1.43477 6.27105C1.43477 5.36104 1.36219 3.40423 1.686 2.58355C1.90373 2.03642 2.32524 1.61492 2.87516 1.39439C3.69864 1.06779 5.65265 1.14316 6.56266 1.14316C7.47267 1.14316 9.42948 1.07058 10.2502 1.39439C10.7973 1.61212 11.2188 2.03363 11.4393 2.58355C11.7659 3.40703 11.6906 5.36104 11.6906 6.27105C11.6906 7.18106 11.7659 9.13787 11.4393 9.95855Z" fill="#145BA1"/>
</svg>
