<svg width="834" height="215" viewBox="0 0 834 215" fill="none" xmlns="http://www.w3.org/2000/svg">
<g filter="url(#filter0_f_53_1635)">
<path d="M-23.5064 129.652H11.6284L20.9261 170.224C21.0039 170.563 20.8683 170.916 20.5831 171.116L-23.5064 202.064V129.652Z" fill="#1968B7"/>
<path d="M-24.6535 127.193H10.4813L19.779 86.6217C19.8568 86.282 19.7212 85.929 19.436 85.7288L-24.6535 54.7814V127.193Z" fill="#28A2F7"/>
<path d="M304.318 129.652H339.452L348.75 170.224C348.828 170.563 348.692 170.916 348.407 171.116L304.318 202.064V129.652Z" fill="#1968B7"/>
<path d="M304.318 129.652H269.183L259.885 170.224C259.807 170.563 259.943 170.916 260.228 171.116L304.318 202.064V129.652Z" fill="#28A2F7"/>
<path d="M303.17 127.193H268.036L258.738 86.6217C258.66 86.282 258.796 85.929 259.081 85.7288L303.17 54.7814V127.193Z" fill="#1968B7"/>
<path d="M303.171 127.193H338.305L347.603 86.6217C347.681 86.282 347.545 85.929 347.26 85.7288L303.171 54.7814V127.193Z" fill="#28A2F7"/>
<path d="M468.23 129.652H503.364L512.662 170.224C512.74 170.563 512.604 170.916 512.319 171.116L468.23 202.064V129.652Z" fill="#1968B7"/>
<path d="M468.229 129.652H433.095L423.797 170.224C423.719 170.563 423.855 170.916 424.14 171.116L468.229 202.064V129.652Z" fill="#28A2F7"/>
<path d="M467.082 127.193H431.948L422.65 86.6217C422.572 86.282 422.708 85.929 422.993 85.7288L467.082 54.7814V127.193Z" fill="#1968B7"/>
<path d="M467.082 127.193H502.217L511.515 86.6217C511.593 86.282 511.457 85.929 511.172 85.7288L467.082 54.7814V127.193Z" fill="#28A2F7"/>
<path d="M632.142 129.652H667.276L676.574 170.224C676.652 170.563 676.516 170.916 676.231 171.116L632.142 202.064V129.652Z" fill="#1968B7"/>
<path d="M632.141 129.652H597.007L587.709 170.224C587.631 170.563 587.767 170.916 588.052 171.116L632.141 202.064V129.652Z" fill="#28A2F7"/>
<path d="M630.994 127.193H595.86L586.562 86.6217C586.484 86.282 586.62 85.929 586.905 85.7288L630.994 54.7814V127.193Z" fill="#1968B7"/>
<path d="M630.995 127.193H666.129L675.427 86.6217C675.505 86.282 675.369 85.929 675.084 85.7288L630.995 54.7814V127.193Z" fill="#28A2F7"/>
<path d="M796.054 129.652H831.188L840.486 170.224C840.564 170.563 840.428 170.916 840.143 171.116L796.054 202.064V129.652Z" fill="#1968B7"/>
<path d="M796.054 129.652H760.919L751.621 170.224C751.543 170.563 751.679 170.916 751.964 171.116L796.054 202.064V129.652Z" fill="#28A2F7"/>
<path d="M794.907 127.193H759.772L750.474 86.6217C750.396 86.282 750.532 85.929 750.817 85.7288L794.907 54.7814V127.193Z" fill="#1968B7"/>
<path d="M794.907 127.193H830.041L839.339 86.6217C839.417 86.282 839.281 85.929 838.996 85.7288L794.907 54.7814V127.193Z" fill="#28A2F7"/>
<path d="M140.406 129.652H175.541L184.838 170.224C184.916 170.563 184.78 170.916 184.495 171.116L140.406 202.064V129.652Z" fill="#1968B7"/>
<path d="M140.405 129.652H105.271L95.973 170.224C95.8951 170.563 96.0307 170.916 96.3159 171.116L140.405 202.064V129.652Z" fill="#28A2F7"/>
<path d="M139.258 127.193H104.123L94.8258 86.6217C94.748 86.282 94.8836 85.929 95.1688 85.7288L139.258 54.7814V127.193Z" fill="#1968B7"/>
<path d="M139.259 127.193H174.393L183.691 86.6217C183.769 86.282 183.633 85.929 183.348 85.7288L139.259 54.7814V127.193Z" fill="#28A2F7"/>
<path d="M57.2617 86.8923H92.3965L101.694 127.464C101.772 127.804 101.636 128.157 101.351 128.357L57.2617 159.304V86.8923Z" fill="#1968B7"/>
<path d="M57.2616 86.8923H22.1268L12.8291 127.464C12.7513 127.804 12.8869 128.157 13.1721 128.357L57.2616 159.304V86.8923Z" fill="#28A2F7"/>
<path d="M56.1147 84.4338H20.9799L11.6823 43.8621C11.6044 43.5225 11.74 43.1695 12.0252 42.9693L56.1147 12.0218V84.4338Z" fill="#1968B7"/>
<path d="M56.1148 84.4338H91.2496L100.547 43.8621C100.625 43.5225 100.49 43.1695 100.204 42.9693L56.1148 12.0218V84.4338Z" fill="#28A2F7"/>
<path d="M385.086 86.8923H420.221L429.518 127.464C429.596 127.804 429.46 128.157 429.175 128.357L385.086 159.304V86.8923Z" fill="#1968B7"/>
<path d="M385.086 86.8923H349.951L340.653 127.464C340.575 127.804 340.711 128.157 340.996 128.357L385.086 159.304V86.8923Z" fill="#28A2F7"/>
<path d="M383.939 84.4338H348.804L339.506 43.8621C339.428 43.5225 339.564 43.1695 339.849 42.9693L383.939 12.0218V84.4338Z" fill="#1968B7"/>
<path d="M383.939 84.4338H419.074L428.371 43.8621C428.449 43.5225 428.313 43.1695 428.028 42.9693L383.939 12.0218V84.4338Z" fill="#28A2F7"/>
<path d="M548.998 86.8923H584.133L593.43 127.464C593.508 127.804 593.373 128.157 593.087 128.357L548.998 159.304V86.8923Z" fill="#1968B7"/>
<path d="M548.998 86.8923H513.863L504.565 127.464C504.487 127.804 504.623 128.157 504.908 128.357L548.998 159.304V86.8923Z" fill="#28A2F7"/>
<path d="M547.85 84.4338H512.716L503.418 43.8621C503.34 43.5225 503.476 43.1695 503.761 42.9693L547.85 12.0218V84.4338Z" fill="#1968B7"/>
<path d="M547.851 84.4338H582.986L592.283 43.8621C592.361 43.5225 592.225 43.1695 591.94 42.9693L547.851 12.0218V84.4338Z" fill="#28A2F7"/>
<path d="M712.91 86.8923H748.045L757.342 127.464C757.42 127.804 757.285 128.157 756.999 128.357L712.91 159.304V86.8923Z" fill="#1968B7"/>
<path d="M712.91 86.8923H677.775L668.477 127.464C668.399 127.804 668.535 128.157 668.82 128.357L712.91 159.304V86.8923Z" fill="#28A2F7"/>
<path d="M711.763 84.4338H676.628L667.33 43.8621C667.252 43.5225 667.388 43.1695 667.673 42.9693L711.763 12.0218V84.4338Z" fill="#1968B7"/>
<path d="M711.763 84.4338H746.898L756.195 43.8621C756.273 43.5225 756.137 43.1695 755.852 42.9693L711.763 12.0218V84.4338Z" fill="#28A2F7"/>
<path d="M876.822 86.8923H841.687L832.389 127.464C832.312 127.804 832.447 128.157 832.732 128.357L876.822 159.304V86.8923Z" fill="#28A2F7"/>
<path d="M875.675 84.4338H840.54L831.242 43.8621C831.165 43.5225 831.3 43.1695 831.585 42.9693L875.675 12.0218V84.4338Z" fill="#1968B7"/>
<path d="M221.174 86.8923H256.309L265.606 127.464C265.684 127.804 265.549 128.157 265.263 128.357L221.174 159.304V86.8923Z" fill="#1968B7"/>
<path d="M221.174 86.8923H186.039L176.741 127.464C176.663 127.804 176.799 128.157 177.084 128.357L221.174 159.304V86.8923Z" fill="#28A2F7"/>
<path d="M220.026 84.4338H184.892L175.594 43.8621C175.516 43.5225 175.652 43.1695 175.937 42.9693L220.026 12.0218V84.4338Z" fill="#1968B7"/>
<path d="M220.027 84.4338H255.161L264.459 43.8621C264.537 43.5225 264.401 43.1695 264.116 42.9693L220.027 12.0218V84.4338Z" fill="#28A2F7"/>
</g>
<defs>
<filter id="filter0_f_53_1635" x="-84.7284" y="-3.4919" width="1021.63" height="221.069" filterUnits="userSpaceOnUse" color-interpolation-filters="sRGB">
<feFlood flood-opacity="0" result="BackgroundImageFix"/>
<feBlend mode="normal" in="SourceGraphic" in2="BackgroundImageFix" result="shape"/>
<feGaussianBlur stdDeviation="7.75681" result="effect1_foregroundBlur_53_1635"/>
</filter>
</defs>
</svg>
