<svg width="156" height="49" viewBox="0 0 156 49" fill="none" xmlns="http://www.w3.org/2000/svg">
<g filter="url(#filter0_d_74_1731)">
<rect width="144" height="36.125" transform="translate(6 2.28711)" fill="#145BA1"/>
<g clip-path="url(#clip0_74_1731)">
<path d="M16.3417 20.2531C16.3413 21.6079 16.6953 22.9307 17.3685 24.0967L16.2773 28.0806L20.3543 27.0116C21.482 27.6255 22.7454 27.9472 24.0293 27.9472H24.0327C28.2712 27.9472 31.7213 24.4983 31.7232 20.2591C31.724 18.2049 30.9247 16.2733 29.4726 14.8201C28.0207 13.3669 26.0898 12.5662 24.0324 12.5653C19.7935 12.5653 16.3435 16.0141 16.3418 20.2531" fill="#145BA1"/>
<path d="M16.0669 20.2506C16.0664 21.6542 16.4331 23.0244 17.1302 24.2321L16 28.3588L20.2232 27.2515C21.3868 27.8859 22.6969 28.2204 24.0301 28.2209H24.0335C28.424 28.2209 31.9981 24.6479 32 20.257C32.0007 18.129 31.1727 16.1279 29.6687 14.6226C28.1646 13.1175 26.1646 12.288 24.0335 12.2871C19.6422 12.2871 16.0686 15.8596 16.0669 20.2506ZM18.5819 24.0241L18.4242 23.7738C17.7613 22.7198 17.4114 21.5018 17.4119 20.2511C17.4134 16.6014 20.3836 13.6321 24.036 13.6321C25.8048 13.6329 27.467 14.3224 28.7172 15.5734C29.9674 16.8245 30.6554 18.4876 30.6549 20.2565C30.6533 23.9062 27.683 26.8759 24.0335 26.8759H24.0309C22.8426 26.8752 21.6771 26.5561 20.6607 25.953L20.4189 25.8096L17.9128 26.4667L18.5819 24.024V24.0241Z" fill="url(#paint0_linear_74_1731)"/>
<path d="M22.0422 16.9213C21.8931 16.5899 21.7362 16.5832 21.5944 16.5774C21.4782 16.5724 21.3455 16.5728 21.2129 16.5728C21.0801 16.5728 20.8644 16.6227 20.6821 16.8218C20.4996 17.021 19.9854 17.5025 19.9854 18.4818C19.9854 19.4612 20.6987 20.4076 20.7981 20.5406C20.8977 20.6733 22.1752 22.7473 24.1984 23.5451C25.8799 24.2082 26.2221 24.0763 26.587 24.0431C26.952 24.0099 27.7648 23.5617 27.9306 23.0969C28.0965 22.6321 28.0965 22.2338 28.0468 22.1505C27.997 22.0676 27.8643 22.0178 27.6652 21.9183C27.4661 21.8187 26.4875 21.3371 26.305 21.2707C26.1225 21.2043 25.9899 21.1712 25.8571 21.3705C25.7244 21.5695 25.3432 22.0178 25.227 22.1505C25.1109 22.2836 24.9947 22.3001 24.7957 22.2006C24.5965 22.1007 23.9555 21.8908 23.1949 21.2127C22.6032 20.6851 22.2037 20.0335 22.0875 19.8342C21.9714 19.6352 22.0751 19.5273 22.1749 19.4281C22.2644 19.3389 22.374 19.1957 22.4737 19.0795C22.5729 18.9633 22.606 18.8803 22.6724 18.7476C22.7389 18.6147 22.7056 18.4984 22.6559 18.3989C22.606 18.2993 22.2192 17.3149 22.0422 16.9213Z" fill="white"/>
</g>
<path d="M42.363 20.4776C42.363 19.7149 42.528 19.0366 42.858 18.4426C43.188 17.8413 43.6463 17.3756 44.233 17.0456C44.827 16.7083 45.498 16.5396 46.246 16.5396C47.1627 16.5396 47.9473 16.7816 48.6 17.2656C49.2527 17.7496 49.689 18.4096 49.909 19.2456H47.841C47.687 18.9229 47.467 18.6773 47.181 18.5086C46.9023 18.3399 46.5833 18.2556 46.224 18.2556C45.6447 18.2556 45.1753 18.4573 44.816 18.8606C44.4567 19.2639 44.277 19.8029 44.277 20.4776C44.277 21.1523 44.4567 21.6913 44.816 22.0946C45.1753 22.4979 45.6447 22.6996 46.224 22.6996C46.5833 22.6996 46.9023 22.6153 47.181 22.4466C47.467 22.2779 47.687 22.0323 47.841 21.7096H49.909C49.689 22.5456 49.2527 23.2056 48.6 23.6896C47.9473 24.1663 47.1627 24.4046 46.246 24.4046C45.498 24.4046 44.827 24.2396 44.233 23.9096C43.6463 23.5723 43.188 23.1066 42.858 22.5126C42.528 21.9186 42.363 21.2403 42.363 20.4776ZM53.8549 24.4376C53.2536 24.4376 52.7109 24.3093 52.2269 24.0526C51.7502 23.7959 51.3726 23.4293 51.0939 22.9526C50.8226 22.4759 50.6869 21.9186 50.6869 21.2806C50.6869 20.6499 50.8262 20.0963 51.1049 19.6196C51.3836 19.1356 51.7649 18.7653 52.2489 18.5086C52.7329 18.2519 53.2756 18.1236 53.8769 18.1236C54.4782 18.1236 55.0209 18.2519 55.5049 18.5086C55.9889 18.7653 56.3702 19.1356 56.6489 19.6196C56.9276 20.0963 57.0669 20.6499 57.0669 21.2806C57.0669 21.9113 56.9239 22.4686 56.6379 22.9526C56.3592 23.4293 55.9742 23.7959 55.4829 24.0526C54.9989 24.3093 54.4562 24.4376 53.8549 24.4376ZM53.8549 22.8096C54.2142 22.8096 54.5186 22.6776 54.7679 22.4136C55.0246 22.1496 55.1529 21.7719 55.1529 21.2806C55.1529 20.7893 55.0282 20.4116 54.7789 20.1476C54.5369 19.8836 54.2362 19.7516 53.8769 19.7516C53.5102 19.7516 53.2059 19.8836 52.9639 20.1476C52.7219 20.4043 52.6009 20.7819 52.6009 21.2806C52.6009 21.7719 52.7182 22.1496 52.9529 22.4136C53.1949 22.6776 53.4956 22.8096 53.8549 22.8096ZM61.8048 18.1456C62.5235 18.1456 63.0955 18.3803 63.5208 18.8496C63.9535 19.3116 64.1698 19.9496 64.1698 20.7636V24.3496H62.2998V21.0166C62.2998 20.6059 62.1935 20.2869 61.9808 20.0596C61.7681 19.8323 61.4821 19.7186 61.1228 19.7186C60.7635 19.7186 60.4775 19.8323 60.2648 20.0596C60.0521 20.2869 59.9458 20.6059 59.9458 21.0166V24.3496H58.0648V18.2116H59.9458V19.0256C60.1365 18.7543 60.3931 18.5416 60.7158 18.3876C61.0385 18.2263 61.4015 18.1456 61.8048 18.1456ZM68.8979 22.7546V24.3496H67.9409C67.2589 24.3496 66.7273 24.1846 66.3459 23.8546C65.9646 23.5173 65.7739 22.9709 65.7739 22.2156V19.7736H65.0259V18.2116H65.7739V16.7156H67.6549V18.2116H68.8869V19.7736H67.6549V22.2376C67.6549 22.4209 67.6989 22.5529 67.7869 22.6336C67.8749 22.7143 68.0216 22.7546 68.2269 22.7546H68.8979ZM69.5717 21.2696C69.5717 20.6389 69.689 20.0853 69.9237 19.6086C70.1657 19.1319 70.492 18.7653 70.9027 18.5086C71.3133 18.2519 71.7717 18.1236 72.2777 18.1236C72.7103 18.1236 73.088 18.2116 73.4107 18.3876C73.7407 18.5636 73.9937 18.7946 74.1697 19.0806V18.2116H76.0507V24.3496H74.1697V23.4806C73.9863 23.7666 73.7297 23.9976 73.3997 24.1736C73.077 24.3496 72.6993 24.4376 72.2667 24.4376C71.768 24.4376 71.3133 24.3093 70.9027 24.0526C70.492 23.7886 70.1657 23.4183 69.9237 22.9416C69.689 22.4576 69.5717 21.9003 69.5717 21.2696ZM74.1697 21.2806C74.1697 20.8113 74.0377 20.4409 73.7737 20.1696C73.517 19.8983 73.2017 19.7626 72.8277 19.7626C72.4537 19.7626 72.1347 19.8983 71.8707 20.1696C71.614 20.4336 71.4857 20.8003 71.4857 21.2696C71.4857 21.7389 71.614 22.1129 71.8707 22.3916C72.1347 22.6629 72.4537 22.7986 72.8277 22.7986C73.2017 22.7986 73.517 22.6629 73.7737 22.3916C74.0377 22.1203 74.1697 21.7499 74.1697 21.2806ZM77.0375 21.2806C77.0375 20.6426 77.1658 20.0853 77.4225 19.6086C77.6865 19.1319 78.0495 18.7653 78.5115 18.5086C78.9808 18.2519 79.5162 18.1236 80.1175 18.1236C80.8875 18.1236 81.5292 18.3253 82.0425 18.7286C82.5632 19.1319 82.9042 19.7003 83.0655 20.4336H81.0635C80.8948 19.9643 80.5685 19.7296 80.0845 19.7296C79.7398 19.7296 79.4648 19.8653 79.2595 20.1366C79.0542 20.4006 78.9515 20.7819 78.9515 21.2806C78.9515 21.7793 79.0542 22.1643 79.2595 22.4356C79.4648 22.6996 79.7398 22.8316 80.0845 22.8316C80.5685 22.8316 80.8948 22.5969 81.0635 22.1276H83.0655C82.9042 22.8463 82.5632 23.4109 82.0425 23.8216C81.5218 24.2323 80.8802 24.4376 80.1175 24.4376C79.5162 24.4376 78.9808 24.3093 78.5115 24.0526C78.0495 23.7959 77.6865 23.4293 77.4225 22.9526C77.1658 22.4759 77.0375 21.9186 77.0375 21.2806ZM87.4926 22.7546V24.3496H86.5356C85.8536 24.3496 85.322 24.1846 84.9406 23.8546C84.5593 23.5173 84.3686 22.9709 84.3686 22.2156V19.7736H83.6206V18.2116H84.3686V16.7156H86.2496V18.2116H87.4816V19.7736H86.2496V22.2376C86.2496 22.4209 86.2936 22.5529 86.3816 22.6336C86.4696 22.7143 86.6163 22.7546 86.8216 22.7546H87.4926ZM94.3264 21.1816C94.3264 21.3576 94.3154 21.5409 94.2934 21.7316H90.0364C90.0657 22.1129 90.1867 22.4063 90.3994 22.6116C90.6194 22.8096 90.8871 22.9086 91.2024 22.9086C91.6717 22.9086 91.9981 22.7106 92.1814 22.3146H94.1834C94.0807 22.7179 93.8937 23.0809 93.6224 23.4036C93.3584 23.7263 93.0247 23.9793 92.6214 24.1626C92.2181 24.3459 91.7671 24.4376 91.2684 24.4376C90.6671 24.4376 90.1317 24.3093 89.6624 24.0526C89.1931 23.7959 88.8264 23.4293 88.5624 22.9526C88.2984 22.4759 88.1664 21.9186 88.1664 21.2806C88.1664 20.6426 88.2947 20.0853 88.5514 19.6086C88.8154 19.1319 89.1821 18.7653 89.6514 18.5086C90.1207 18.2519 90.6597 18.1236 91.2684 18.1236C91.8624 18.1236 92.3904 18.2483 92.8524 18.4976C93.3144 18.7469 93.6737 19.1026 93.9304 19.5646C94.1944 20.0266 94.3264 20.5656 94.3264 21.1816ZM92.4014 20.6866C92.4014 20.3639 92.2914 20.1073 92.0714 19.9166C91.8514 19.7259 91.5764 19.6306 91.2464 19.6306C90.9311 19.6306 90.6634 19.7223 90.4434 19.9056C90.2307 20.0889 90.0987 20.3493 90.0474 20.6866H92.4014ZM97.0787 22.7986H99.7407V24.3496H94.9777V22.8536L97.5297 19.7626H94.9997V18.2116H99.6857V19.7076L97.0787 22.7986ZM105.506 19.7076V21.2696H100.666V19.7076H105.506ZM110.897 18.1456C111.615 18.1456 112.187 18.3803 112.613 18.8496C113.045 19.3116 113.262 19.9496 113.262 20.7636V24.3496H111.392V21.0166C111.392 20.6059 111.285 20.2869 111.073 20.0596C110.86 19.8323 110.574 19.7186 110.215 19.7186C109.855 19.7186 109.569 19.8323 109.357 20.0596C109.144 20.2869 109.038 20.6059 109.038 21.0166V24.3496H107.157V18.2116H109.038V19.0256C109.228 18.7543 109.485 18.5416 109.808 18.3876C110.13 18.2263 110.493 18.1456 110.897 18.1456ZM117.363 24.4376C116.761 24.4376 116.219 24.3093 115.735 24.0526C115.258 23.7959 114.88 23.4293 114.602 22.9526C114.33 22.4759 114.195 21.9186 114.195 21.2806C114.195 20.6499 114.334 20.0963 114.613 19.6196C114.891 19.1356 115.273 18.7653 115.757 18.5086C116.241 18.2519 116.783 18.1236 117.385 18.1236C117.986 18.1236 118.529 18.2519 119.013 18.5086C119.497 18.7653 119.878 19.1356 120.157 19.6196C120.435 20.0963 120.575 20.6499 120.575 21.2806C120.575 21.9113 120.432 22.4686 120.146 22.9526C119.867 23.4293 119.482 23.7959 118.991 24.0526C118.507 24.3093 117.964 24.4376 117.363 24.4376ZM117.363 22.8096C117.722 22.8096 118.026 22.6776 118.276 22.4136C118.532 22.1496 118.661 21.7719 118.661 21.2806C118.661 20.7893 118.536 20.4116 118.287 20.1476C118.045 19.8836 117.744 19.7516 117.385 19.7516C117.018 19.7516 116.714 19.8836 116.472 20.1476C116.23 20.4043 116.109 20.7819 116.109 21.2806C116.109 21.7719 116.226 22.1496 116.461 22.4136C116.703 22.6776 117.003 22.8096 117.363 22.8096ZM127.634 18.2116V24.3496H125.753V23.5136C125.562 23.7849 125.302 24.0049 124.972 24.1736C124.649 24.3349 124.29 24.4156 123.894 24.4156C123.424 24.4156 123.01 24.3129 122.651 24.1076C122.291 23.8949 122.013 23.5906 121.815 23.1946C121.617 22.7986 121.518 22.3329 121.518 21.7976V18.2116H123.388V21.5446C123.388 21.9553 123.494 22.2743 123.707 22.5016C123.919 22.7289 124.205 22.8426 124.565 22.8426C124.931 22.8426 125.221 22.7289 125.434 22.5016C125.646 22.2743 125.753 21.9553 125.753 21.5446V18.2116H127.634ZM131.482 24.4376C130.946 24.4376 130.47 24.3459 130.052 24.1626C129.634 23.9793 129.304 23.7299 129.062 23.4146C128.82 23.0919 128.684 22.7326 128.655 22.3366H130.514C130.536 22.5493 130.635 22.7216 130.811 22.8536C130.987 22.9856 131.203 23.0516 131.46 23.0516C131.694 23.0516 131.874 23.0076 131.999 22.9196C132.131 22.8243 132.197 22.7033 132.197 22.5566C132.197 22.3806 132.105 22.2523 131.922 22.1716C131.738 22.0836 131.441 21.9883 131.031 21.8856C130.591 21.7829 130.224 21.6766 129.931 21.5666C129.637 21.4493 129.384 21.2696 129.172 21.0276C128.959 20.7783 128.853 20.4446 128.853 20.0266C128.853 19.6746 128.948 19.3556 129.139 19.0696C129.337 18.7763 129.623 18.5453 129.997 18.3766C130.378 18.2079 130.829 18.1236 131.35 18.1236C132.12 18.1236 132.725 18.3143 133.165 18.6956C133.612 19.0769 133.869 19.5829 133.935 20.2136H132.197C132.167 20.0009 132.072 19.8323 131.911 19.7076C131.757 19.5829 131.551 19.5206 131.295 19.5206C131.075 19.5206 130.906 19.5646 130.789 19.6526C130.671 19.7333 130.613 19.8469 130.613 19.9936C130.613 20.1696 130.704 20.3016 130.888 20.3896C131.078 20.4776 131.372 20.5656 131.768 20.6536C132.222 20.7709 132.593 20.8883 132.879 21.0056C133.165 21.1156 133.414 21.2989 133.627 21.5556C133.847 21.8049 133.96 22.1423 133.968 22.5676C133.968 22.9269 133.865 23.2496 133.66 23.5356C133.462 23.8143 133.172 24.0343 132.791 24.1956C132.417 24.3569 131.98 24.4376 131.482 24.4376Z" fill="white"/>
</g>
<defs>
<filter id="filter0_d_74_1731" x="0" y="0.287109" width="156" height="48.125" filterUnits="userSpaceOnUse" color-interpolation-filters="sRGB">
<feFlood flood-opacity="0" result="BackgroundImageFix"/>
<feColorMatrix in="SourceAlpha" type="matrix" values="0 0 0 0 0 0 0 0 0 0 0 0 0 0 0 0 0 0 127 0" result="hardAlpha"/>
<feOffset dy="4"/>
<feGaussianBlur stdDeviation="3"/>
<feComposite in2="hardAlpha" operator="out"/>
<feColorMatrix type="matrix" values="0 0 0 0 0 0 0 0 0 0 0 0 0 0 0 0 0 0 0.25 0"/>
<feBlend mode="normal" in2="BackgroundImageFix" result="effect1_dropShadow_74_1731"/>
<feBlend mode="normal" in="SourceGraphic" in2="effect1_dropShadow_74_1731" result="shape"/>
</filter>
<linearGradient id="paint0_linear_74_1731" x1="816" y1="1619.46" x2="816" y2="12.2871" gradientUnits="userSpaceOnUse">
<stop stop-color="#F9F9F9"/>
<stop offset="1" stop-color="white"/>
</linearGradient>
<clipPath id="clip0_74_1731">
<rect width="16" height="16.125" fill="white" transform="translate(16 12.2871)"/>
</clipPath>
</defs>
</svg>
