<svg width="13" height="13" viewBox="0 0 13 13" fill="none" xmlns="http://www.w3.org/2000/svg">
<path d="M11.9502 0.0161133H1.22824C0.736946 0.0161133 0.337769 0.420873 0.337769 0.917751V11.6202C0.337769 12.117 0.736946 12.5218 1.22824 12.5218H11.9502C12.4415 12.5218 12.8435 12.117 12.8435 11.6202V0.917751C12.8435 0.420873 12.4415 0.0161133 11.9502 0.0161133ZM4.11739 10.7353H2.26387V4.76716H4.12018V10.7353H4.11739ZM3.19063 3.95206C2.59605 3.95206 2.11592 3.46914 2.11592 2.87735C2.11592 2.28556 2.59605 1.80264 3.19063 1.80264C3.78242 1.80264 4.26534 2.28556 4.26534 2.87735C4.26534 3.47193 3.78521 3.95206 3.19063 3.95206ZM11.0653 10.7353H9.21178V7.83217C9.21178 7.13989 9.19783 6.24942 8.24873 6.24942C7.28289 6.24942 7.13495 7.00311 7.13495 7.78192V10.7353H5.28142V4.76716H7.05958V5.58226H7.0847C7.33314 5.1133 7.93888 4.61921 8.84052 4.61921C10.7164 4.61921 11.0653 5.85582 11.0653 7.4637V10.7353Z" fill="#145BA1"/>
</svg>
