<svg width="119" height="58" viewBox="0 0 119 58" fill="none" xmlns="http://www.w3.org/2000/svg">
<path d="M40.4548 1H10.4168C10.2328 1 10.073 1.12691 10.0313 1.3062L1.0614 39.9159C1.02439 40.0752 1.08914 40.2408 1.22435 40.3328L25.5069 56.8449C25.6439 56.9381 25.8246 56.936 25.9594 56.8397L49.0707 40.3316C49.1993 40.2397 49.2609 40.0801 49.2274 39.9256L40.8416 1.31177C40.802 1.1298 40.641 1 40.4548 1Z" fill="white" stroke="#145BA1" stroke-width="1.9788"/>
<path d="M12.0813 11.6855H38.2014" stroke="#389BDF" stroke-width="0.514488" stroke-linecap="round"/>
<path d="M25.1414 19.205H8.91525L4.62134 37.942C4.58539 38.0989 4.64801 38.2619 4.77973 38.3543L25.1414 52.6467V19.205Z" fill="#28A2F7"/>
<path d="M25.1413 19.205H41.3675L45.6614 37.942C45.6973 38.0989 45.6347 38.2619 45.503 38.3543L25.1413 52.6467V19.205Z" fill="#1968B7"/>
<path d="M20.8503 32.4196V34.553H27.4775H34.1047V32.4196V30.2862H27.4775H20.8503V32.4196Z" fill="white"/>
<path d="M17.0102 31.4482C16.983 31.4845 16.756 32.0746 16.5018 32.7646L16.0388 34.0265V35.2702C16.0388 36.1145 16.0751 36.5502 16.1478 36.6229C16.2113 36.6864 16.411 36.7318 16.6017 36.7318C16.874 36.7318 16.9467 36.6955 16.9467 36.5684C16.9467 36.3233 17.446 35.6696 17.7546 35.5062C18.3356 35.2066 19.0165 35.3882 19.4523 35.9602L19.6883 36.2779H20.4691H21.2407L21.6674 35.8784C21.9488 35.6152 22.2212 35.4518 22.4391 35.4064C23.1563 35.2793 23.8644 35.7332 23.9915 36.4141C24.0369 36.6683 24.0913 36.7318 24.2638 36.7318C24.5634 36.7318 24.5452 36.523 24.2003 35.8421C23.7554 34.9434 23.6737 34.9161 21.4949 34.9161H19.6702V33.1459V31.3756H18.3629C17.6366 31.3756 17.0284 31.4028 17.0102 31.4482ZM18.6715 32.7373V33.5453L18.381 33.5907C17.7365 33.6996 16.4564 33.8177 16.4201 33.7813C16.3838 33.745 16.8196 32.347 16.9648 32.0746C17.0284 31.9475 17.1736 31.9203 17.8545 31.9203H18.6715V32.7373Z" fill="white"/>
<path d="M29.0572 35.0886C28.7123 35.2974 28.4218 35.6878 28.2493 36.1962C28.0677 36.6955 28.0768 36.7318 28.3401 36.7318C28.5216 36.7318 28.5761 36.6683 28.6487 36.3868C28.7577 36.0055 29.1117 35.5789 29.4476 35.4518C29.7926 35.3247 30.3736 35.3519 30.6641 35.5244C30.8094 35.6152 30.9274 35.715 30.9274 35.7513C30.9274 35.7877 31.0272 35.824 31.1543 35.824C31.2814 35.824 31.3813 35.7877 31.3813 35.7332C31.3813 35.5335 31.9532 35.3519 32.4435 35.3882C32.8611 35.4245 32.9882 35.479 33.2605 35.7513C33.433 35.9329 33.6055 36.2053 33.6418 36.3778C33.6872 36.6319 33.7508 36.6955 33.9505 36.7137C34.1865 36.7409 34.1956 36.7227 34.1411 36.4867C34.0322 36.0146 33.6055 35.3337 33.2968 35.1249C32.9973 34.9252 32.9155 34.9161 31.1634 34.9161C29.5293 34.9161 29.3114 34.9343 29.0572 35.0886Z" fill="white"/>
<path d="M17.8908 35.7332C17.6366 35.833 17.337 36.2234 17.2644 36.5412C17.1918 36.8861 17.4096 37.4036 17.7274 37.6124C17.8726 37.7032 18.145 37.7758 18.3719 37.7758C19.4069 37.7758 19.77 36.2507 18.8531 35.7786C18.5626 35.6333 18.1904 35.6061 17.8908 35.7332Z" fill="white"/>
<path d="M22.1032 35.7967C21.5222 36.1689 21.4314 36.9951 21.9217 37.4853C22.4754 38.03 23.3651 37.8212 23.6465 37.0768C23.8099 36.6682 23.7373 36.3596 23.4105 35.9964C23.0928 35.6424 22.4845 35.5516 22.1032 35.7967Z" fill="white"/>
<path d="M29.3295 35.8058C28.4762 36.3505 28.8574 37.7758 29.8651 37.7758C30.3554 37.7758 30.7185 37.5398 30.9001 37.1131C31.2814 36.1871 30.1829 35.2702 29.3295 35.8058Z" fill="white"/>
<path d="M31.7717 35.824C31.4085 36.0419 31.2905 36.2598 31.2905 36.7046C31.2905 37.4763 31.9623 37.9756 32.6886 37.7305C33.4966 37.4672 33.6327 36.2688 32.9065 35.824C32.5252 35.597 32.1439 35.597 31.7717 35.824Z" fill="white"/>
<rect width="21.371" height="1.9788" transform="translate(14.4558 14.4558)" fill="#28A2F7"/>
<rect width="27.3074" height="1.9788" transform="translate(11.6855 6.54065)" fill="#145BA1"/>
<path d="M57.9208 18V9.02529H66.21V10.9698H59.8778V12.5404H64.976V14.4849H59.8778V18H57.9208ZM66.5921 18V9.02529H68.4992V18H66.5921ZM76.5374 18L73.9323 14.8962H76.4626L78.5318 17.3394V18H76.5374ZM69.5695 18V9.03776H76.687C77.0277 9.03776 77.3352 9.12086 77.6094 9.28706C77.8919 9.45326 78.1163 9.67762 78.2825 9.96016C78.457 10.2427 78.5443 10.5502 78.5443 10.8826V13.201C78.5443 13.5334 78.457 13.8409 78.2825 14.1234C78.1163 14.406 77.8919 14.6303 77.6094 14.7965C77.3352 14.9627 77.0277 15.0458 76.687 15.0458L71.5016 15.0583V18H69.5695ZM71.5016 13.1013H76.5873V10.9698H71.5016V13.1013ZM81.6754 18C81.343 18 81.0355 17.9169 80.753 17.7507C80.4704 17.5845 80.2461 17.3601 80.0799 17.0776C79.9137 16.7951 79.8306 16.4876 79.8306 16.1552V15.3201H81.7626V16.0555H86.8483V14.4849H81.6754C81.343 14.4849 81.0355 14.4018 80.753 14.2356C80.4704 14.0694 80.2461 13.8492 80.0799 13.575C79.9137 13.2924 79.8306 12.9808 79.8306 12.6401V10.8701C79.8306 10.5294 79.9137 10.2219 80.0799 9.9477C80.2461 9.66516 80.4704 9.44079 80.753 9.27459C81.0355 9.10839 81.343 9.02529 81.6754 9.02529H86.9605C87.2929 9.02529 87.5962 9.10839 87.8704 9.27459C88.1529 9.44079 88.3773 9.66516 88.5435 9.9477C88.718 10.2219 88.8053 10.5294 88.8053 10.8701V11.7052H86.8483V10.9698H81.7626V12.5404H86.9605C87.2929 12.5404 87.5962 12.6235 87.8704 12.7897C88.1529 12.9559 88.3773 13.1803 88.5435 13.4628C88.718 13.737 88.8053 14.0445 88.8053 14.3852V16.1552C88.8053 16.4876 88.718 16.7951 88.5435 17.0776C88.3773 17.3601 88.1529 17.5845 87.8704 17.7507C87.5962 17.9169 87.2929 18 86.9605 18H81.6754ZM93.2443 18V10.9698H89.7292V9.02529H98.7039V10.9698H95.1888V18H93.2443ZM60.9623 34V26.9698H57.4472V25.0253H66.4219V26.9698H62.9068V34H60.9623ZM74.322 34L71.7168 30.8962H74.2472L76.3164 33.3394V34H74.322ZM67.3541 34V25.0378H74.4716C74.8123 25.0378 75.1197 25.1209 75.394 25.2871C75.6765 25.4533 75.9009 25.6776 76.0671 25.9602C76.2416 26.2427 76.3288 26.5502 76.3288 26.8826V29.201C76.3288 29.5334 76.2416 29.8409 76.0671 30.1234C75.9009 30.406 75.6765 30.6303 75.394 30.7965C75.1197 30.9627 74.8123 31.0458 74.4716 31.0458L69.2862 31.0583V34H67.3541ZM69.2862 29.1013H74.3718V26.9698H69.2862V29.1013ZM79.4599 34C79.1275 34 78.8201 33.9169 78.5375 33.7507C78.255 33.5845 78.0306 33.3601 77.8644 33.0776C77.6982 32.7951 77.6151 32.4876 77.6151 32.1552V25.0253H79.5472V32.0555H84.6329V25.0253H86.5898V32.1552C86.5898 32.4876 86.5026 32.7951 86.3281 33.0776C86.1619 33.3601 85.9375 33.5845 85.655 33.7507C85.3807 33.9169 85.0774 34 84.745 34H79.4599ZM89.8073 34C89.4666 34 89.155 33.9169 88.8725 33.7507C88.5982 33.5845 88.378 33.3643 88.2118 33.0901C88.0456 32.8075 87.9625 32.4959 87.9625 32.1552V26.8701C87.9625 26.5294 88.0456 26.2219 88.2118 25.9477C88.378 25.6652 88.5982 25.4408 88.8725 25.2746C89.155 25.1084 89.4666 25.0253 89.8073 25.0253H96.9123V26.9698H90.3059C90.173 26.9698 90.0691 27.0031 89.9943 27.0695C89.9278 27.136 89.8946 27.2399 89.8946 27.3812V31.6441C89.8946 31.7771 89.9278 31.881 89.9943 31.9558C90.0691 32.0222 90.173 32.0555 90.3059 32.0555H96.9123V34H89.8073ZM98.2244 34V25.0253H100.169V28.5404H101.926L104.868 25.0253H106.888V25.6984L103.684 29.5126L106.888 33.3269V34H104.868L101.926 30.4849H100.169V34H98.2244ZM109.965 34C109.632 34 109.325 33.9169 109.042 33.7507C108.76 33.5845 108.535 33.3601 108.369 33.0776C108.203 32.7951 108.12 32.4876 108.12 32.1552V31.3201H110.052V32.0555H115.138V30.4849H109.965C109.632 30.4849 109.325 30.4018 109.042 30.2356C108.76 30.0694 108.535 29.8492 108.369 29.575C108.203 29.2924 108.12 28.9808 108.12 28.6401V26.8701C108.12 26.5294 108.203 26.2219 108.369 25.9477C108.535 25.6652 108.76 25.4408 109.042 25.2746C109.325 25.1084 109.632 25.0253 109.965 25.0253H115.25C115.582 25.0253 115.886 25.1084 116.16 25.2746C116.442 25.4408 116.667 25.6652 116.833 25.9477C117.007 26.2219 117.095 26.5294 117.095 26.8701V27.7052H115.138V26.9698H110.052V28.5404H115.25C115.582 28.5404 115.886 28.6235 116.16 28.7897C116.442 28.9559 116.667 29.1803 116.833 29.4628C117.007 29.737 117.095 30.0445 117.095 30.3852V32.1552C117.095 32.4876 117.007 32.7951 116.833 33.0776C116.667 33.3601 116.442 33.5845 116.16 33.7507C115.886 33.9169 115.582 34 115.25 34H109.965ZM59.7158 50C59.3834 50 59.0759 49.9169 58.7934 49.7507C58.5108 49.5845 58.2865 49.3601 58.1203 49.0776C57.9541 48.7951 57.871 48.4876 57.871 48.1552V47.3201H59.803V48.0555H64.8887V46.4849H59.7158C59.3834 46.4849 59.0759 46.4018 58.7934 46.2356C58.5108 46.0694 58.2865 45.8492 58.1203 45.575C57.9541 45.2924 57.871 44.9808 57.871 44.6401V42.8701C57.871 42.5294 57.9541 42.2219 58.1203 41.9477C58.2865 41.6652 58.5108 41.4408 58.7934 41.2746C59.0759 41.1084 59.3834 41.0253 59.7158 41.0253H65.0009C65.3333 41.0253 65.6366 41.1084 65.9108 41.2746C66.1934 41.4408 66.4177 41.6652 66.5839 41.9477C66.7584 42.2219 66.8457 42.5294 66.8457 42.8701V43.7052H64.8887V42.9698H59.803V44.5404H65.0009C65.3333 44.5404 65.6366 44.6235 65.9108 44.7897C66.1934 44.9559 66.4177 45.1803 66.5839 45.4628C66.7584 45.737 66.8457 46.0445 66.8457 46.3852V48.1552C66.8457 48.4876 66.7584 48.7951 66.5839 49.0776C66.4177 49.3601 66.1934 49.5845 65.9108 49.7507C65.6366 49.9169 65.3333 50 65.0009 50H59.7158ZM68.2433 50V42.8701C68.2433 42.5294 68.3264 42.2219 68.4926 41.9477C68.6588 41.6652 68.8832 41.4408 69.1657 41.2746C69.4482 41.1084 69.7557 41.0253 70.0881 41.0253H75.3607C75.7015 41.0253 76.0089 41.1084 76.2831 41.2746C76.5657 41.4408 76.7901 41.6652 76.9562 41.9477C77.1308 42.2219 77.218 42.5294 77.218 42.8701V50H75.261V47.1082H70.1754V50H68.2433ZM70.1754 45.1636H75.261V42.9698H70.1754V45.1636ZM85.6061 50L83.0009 46.8962H85.5313L87.6005 49.3394V50H85.6061ZM78.6382 50V41.0378H85.7557C86.0964 41.0378 86.4038 41.1209 86.6781 41.2871C86.9606 41.4533 87.185 41.6776 87.3512 41.9602C87.5257 42.2427 87.6129 42.5502 87.6129 42.8826V45.201C87.6129 45.5334 87.5257 45.8409 87.3512 46.1234C87.185 46.406 86.9606 46.6303 86.6781 46.7965C86.4038 46.9627 86.0964 47.0458 85.7557 47.0458L80.5703 47.0583V50H78.6382ZM80.5703 45.1013H85.6559V42.9698H80.5703V45.1013ZM88.9366 50V41.0128H90.8687V48.0555H97.9113V50H88.9366Z" fill="#145BA1"/>
</svg>
