<svg width="16" height="13" viewBox="0 0 16 13" fill="none" xmlns="http://www.w3.org/2000/svg">
<path d="M13.5727 3.48078C13.5818 3.60774 13.5818 3.73472 13.5818 3.86167C13.5818 7.73397 10.6345 12.1958 5.24769 12.1958C3.58812 12.1958 2.04646 11.7151 0.749634 10.8808C0.985427 10.908 1.21212 10.9171 1.45699 10.9171C2.82633 10.9171 4.08689 10.4546 5.09352 9.66563C3.80577 9.63841 2.72659 8.79503 2.35477 7.63423C2.53616 7.66142 2.71752 7.67957 2.90798 7.67957C3.17096 7.67957 3.43397 7.64328 3.67881 7.57983C2.33666 7.30774 1.33 6.12883 1.33 4.70505V4.66879C1.71994 4.88644 2.17341 5.02247 2.65402 5.04059C1.86504 4.51459 1.34815 3.61681 1.34815 2.60111C1.34815 2.057 1.49322 1.55823 1.74716 1.12293C3.18908 2.90038 5.3565 4.06115 7.78688 4.18813C7.74154 3.97048 7.71433 3.74379 7.71433 3.51707C7.71433 1.90283 9.02022 0.587891 10.6435 0.587891C11.4869 0.587891 12.2486 0.941567 12.7837 1.51289C13.4457 1.38594 14.0805 1.14107 14.6428 0.80554C14.4251 1.4857 13.9626 2.05703 13.355 2.41975C13.9445 2.3563 14.5158 2.19303 15.0418 1.96634C14.6428 2.54671 14.144 3.0636 13.5727 3.48078Z" fill="#145BA1"/>
</svg>
